<?xml version="1.0" encoding="UTF-8"?>
<!DOCTYPE svg PUBLIC "-//W3C//DTD SVG 1.1//EN" "http://www.w3.org/Graphics/SVG/1.1/DTD/svg11.dtd">
<svg xmlns="http://www.w3.org/2000/svg" version="1.1" width="3840px" height="2160px" style="shape-rendering:geometricPrecision; text-rendering:geometricPrecision; image-rendering:optimizeQuality; fill-rule:evenodd; clip-rule:evenodd" xmlns:xlink="http://www.w3.org/1999/xlink">
<g><path style="opacity:1" fill="#040404" d="M 192.5,1335.5 C 193.924,1333.49 194.59,1331.15 194.5,1328.5C 208.408,1286.32 215.575,1242.98 216,1198.5C 217.841,1003.84 218.841,809.172 219,614.5C 219.122,611.034 217.789,608.368 215,606.5C 195.429,622.4 179.095,641.067 166,662.5C 129.415,723.841 113.415,790.174 118,861.5C 120.223,889.335 128.723,915.002 143.5,938.5C 143.427,940.027 144.094,941.027 145.5,941.5C 153.789,950.195 155.956,960.195 152,971.5C 150.786,973.049 149.286,974.215 147.5,975C 137.068,976.048 127.068,974.381 117.5,970C 103.974,964.27 91.9737,956.437 81.5,946.5C 81.0269,945.094 80.0269,944.427 78.5,944.5C 38.4187,908.119 21.252,862.786 27,808.5C 28.1024,797.486 30.269,786.819 33.5,776.5C 34.9238,774.485 35.5905,772.152 35.5,769.5C 36.9238,767.485 37.5905,765.152 37.5,762.5C 46.1965,731.781 59.1965,703.115 76.5,676.5C 77.9063,676.027 78.573,675.027 78.5,673.5C 80.6735,669.148 83.3401,665.148 86.5,661.5C 87.9063,661.027 88.573,660.027 88.5,658.5C 89.9063,658.027 90.573,657.027 90.5,655.5C 92.0252,652.437 94.0252,649.77 96.5,647.5C 98.2624,646.738 99.2624,645.404 99.5,643.5C 104.111,636.556 109.445,630.222 115.5,624.5C 117.262,623.738 118.262,622.404 118.5,620.5C 125.5,612.833 132.833,605.5 140.5,598.5C 143.089,597.581 145.089,595.914 146.5,593.5C 148.88,590.119 151.88,587.453 155.5,585.5C 157.404,585.262 158.738,584.262 159.5,582.5C 159.5,581.833 159.833,581.5 160.5,581.5C 162.404,581.262 163.738,580.262 164.5,578.5C 166.404,578.262 167.738,577.262 168.5,575.5C 169.436,574.026 170.77,573.026 172.5,572.5C 174.027,572.573 175.027,571.906 175.5,570.5C 191.835,558.162 209.835,548.662 229.5,542C 259.414,538.979 286.748,545.979 311.5,563C 316.905,567.061 320.738,572.228 323,578.5C 323.333,590.833 323.667,603.167 324,615.5C 324.667,759.167 324.667,902.833 324,1046.5C 323.671,1081.84 323.005,1117.17 322,1152.5C 321.331,1191.18 313.998,1228.51 300,1264.5C 283.801,1305.7 255.634,1335.53 215.5,1354C 196.292,1361.26 188.625,1355.09 192.5,1335.5 Z"/></g>
<g><path style="opacity:1" fill="#040404" d="M 1361.5,770.5 C 1360.17,770.5 1358.83,770.5 1357.5,770.5C 1357.5,772.167 1357.5,773.833 1357.5,775.5C 1353.57,870.296 1350.9,965.129 1349.5,1060C 1348.95,1092.3 1352.45,1124.13 1360,1155.5C 1362.55,1162.97 1365.38,1170.31 1368.5,1177.5C 1368.43,1179.03 1369.09,1180.03 1370.5,1180.5C 1371.8,1182.14 1373.14,1183.81 1374.5,1185.5C 1374.5,1187.5 1375.5,1188.5 1377.5,1188.5C 1381.29,1191.97 1385.79,1193.97 1391,1194.5C 1396.33,1193.67 1401.49,1192.33 1406.5,1190.5C 1408.03,1190.57 1409.03,1189.91 1409.5,1188.5C 1412.8,1186.18 1416.13,1183.85 1419.5,1181.5C 1423.17,1179.83 1425.83,1177.17 1427.5,1173.5C 1429.17,1171.17 1431.17,1169.17 1433.5,1167.5C 1435.26,1166.74 1436.26,1165.4 1436.5,1163.5C 1437.12,1161.25 1438.46,1159.58 1440.5,1158.5C 1441.91,1158.03 1442.57,1157.03 1442.5,1155.5C 1443.91,1155.03 1444.57,1154.03 1444.5,1152.5C 1444.93,1151.29 1445.6,1150.29 1446.5,1149.5C 1447.91,1149.03 1448.57,1148.03 1448.5,1146.5C 1461.94,1123.35 1471.78,1098.69 1478,1072.5C 1479.03,1023.88 1485.03,975.878 1496,928.5C 1502.72,902.406 1513.22,878.073 1527.5,855.5C 1528.91,855.027 1529.57,854.027 1529.5,852.5C 1530.91,852.027 1531.57,851.027 1531.5,849.5C 1532.91,849.027 1533.57,848.027 1533.5,846.5C 1534.91,846.027 1535.57,845.027 1535.5,843.5C 1536.91,843.027 1537.57,842.027 1537.5,840.5C 1544.07,830.593 1551.74,821.593 1560.5,813.5C 1563.09,812.581 1565.09,810.914 1566.5,808.5C 1578.16,797.496 1591.83,789.83 1607.5,785.5C 1610.15,785.59 1612.49,784.924 1614.5,783.5C 1660.39,773.472 1698.39,786.472 1728.5,822.5C 1728.43,824.027 1729.09,825.027 1730.5,825.5C 1731.17,825.5 1731.5,825.833 1731.5,826.5C 1731.43,828.027 1732.09,829.027 1733.5,829.5C 1734.17,829.5 1734.5,829.833 1734.5,830.5C 1734.43,832.027 1735.09,833.027 1736.5,833.5C 1736.78,834.289 1737.28,834.956 1738,835.5C 1738.5,827.841 1738.67,820.174 1738.5,812.5C 1739.63,807.708 1742.29,804.041 1746.5,801.5C 1748.03,801.573 1749.03,800.906 1749.5,799.5C 1776.35,794.492 1802.02,798.659 1826.5,812C 1836.06,817.835 1839.73,826.335 1837.5,837.5C 1835.16,905.318 1833.49,973.151 1832.5,1041C 1831.66,1078.69 1833.83,1116.19 1839,1153.5C 1841.39,1169 1846.72,1183.33 1855,1196.5C 1868.86,1210.32 1884.03,1211.99 1900.5,1201.5C 1903.83,1200.17 1906.17,1197.83 1907.5,1194.5C 1909.53,1192.14 1911.53,1189.81 1913.5,1187.5C 1914.91,1187.03 1915.57,1186.03 1915.5,1184.5C 1916.91,1184.03 1917.57,1183.03 1917.5,1181.5C 1925.19,1167.28 1931.02,1152.28 1935,1136.5C 1932.31,1110.76 1930.48,1084.93 1929.5,1059C 1929.82,1023.18 1933.32,987.68 1940,952.5C 1941.73,944.582 1943.89,936.915 1946.5,929.5C 1947.92,927.485 1948.59,925.152 1948.5,922.5C 1957.05,892.071 1970.38,864.071 1988.5,838.5C 1989.91,838.027 1990.57,837.027 1990.5,835.5C 1990.5,834.833 1990.83,834.5 1991.5,834.5C 1992.91,834.027 1993.57,833.027 1993.5,831.5C 1993.5,830.833 1993.83,830.5 1994.5,830.5C 1995.91,830.027 1996.57,829.027 1996.5,827.5C 1997.5,825.833 1998.83,824.5 2000.5,823.5C 2001.91,823.027 2002.57,822.027 2002.5,820.5C 2003.83,818.5 2005.5,816.833 2007.5,815.5C 2010.43,814.243 2012.76,812.243 2014.5,809.5C 2014.83,808.5 2015.5,807.833 2016.5,807.5C 2018.4,807.262 2019.74,806.262 2020.5,804.5C 2020.5,803.833 2020.83,803.5 2021.5,803.5C 2023.03,803.573 2024.03,802.906 2024.5,801.5C 2026.15,799.674 2028.15,798.34 2030.5,797.5C 2032.03,797.573 2033.03,796.906 2033.5,795.5C 2055.38,782.618 2079.05,777.785 2104.5,781C 2132.56,784.863 2155.9,797.363 2174.5,818.5C 2174.43,820.027 2175.09,821.027 2176.5,821.5C 2177.5,821.833 2178.17,822.5 2178.5,823.5C 2178.74,825.404 2179.74,826.738 2181.5,827.5C 2183.54,828.579 2184.88,830.246 2185.5,832.5C 2185.46,833.756 2185.96,834.756 2187,835.5C 2187.5,828.842 2187.67,822.175 2187.5,815.5C 2187.84,811.164 2189.5,807.497 2192.5,804.5C 2194.03,804.573 2195.03,803.906 2195.5,802.5C 2198.55,799.643 2202.21,797.81 2206.5,797C 2233.05,795.305 2257.72,801.139 2280.5,814.5C 2280.74,816.404 2281.74,817.738 2283.5,818.5C 2284.12,818.611 2284.62,818.944 2285,819.5C 2286.09,822.936 2286.92,826.436 2287.5,830C 2285.36,883.804 2284.03,937.637 2283.5,991.5C 2282.33,1043 2282.17,1094.67 2283,1146.5C 2283.72,1145.96 2284.22,1145.29 2284.5,1144.5C 2285.03,1142.77 2286.03,1141.44 2287.5,1140.5C 2288.91,1140.03 2289.57,1139.03 2289.5,1137.5C 2290.81,1134.86 2292.48,1132.53 2294.5,1130.5C 2295.91,1130.03 2296.57,1129.03 2296.5,1127.5C 2298.45,1123.56 2300.78,1119.89 2303.5,1116.5C 2304.91,1116.03 2305.57,1115.03 2305.5,1113.5C 2307,1109.83 2309,1106.49 2311.5,1103.5C 2312.91,1103.03 2313.57,1102.03 2313.5,1100.5C 2313.33,1099.51 2313.66,1098.84 2314.5,1098.5C 2315.91,1098.03 2316.57,1097.03 2316.5,1095.5C 2346.48,1044.88 2370.48,991.545 2388.5,935.5C 2389.92,933.485 2390.59,931.152 2390.5,928.5C 2391.92,926.485 2392.59,924.152 2392.5,921.5C 2393.34,916.481 2394.34,911.481 2395.5,906.5C 2394.26,903.915 2392.59,901.582 2390.5,899.5C 2390.03,898.094 2389.03,897.427 2387.5,897.5C 2373.35,884.59 2366.01,868.423 2365.5,849C 2366.12,836.445 2368.62,824.278 2373,812.5C 2375.02,807.777 2377.52,803.443 2380.5,799.5C 2381.91,799.027 2382.57,798.027 2382.5,796.5C 2383.78,793.553 2385.78,791.219 2388.5,789.5C 2390.5,788.167 2392.17,786.5 2393.5,784.5C 2394.17,783.167 2395.17,782.167 2396.5,781.5C 2398.03,781.573 2399.03,780.906 2399.5,779.5C 2402.9,776.465 2406.9,774.465 2411.5,773.5C 2414.15,773.59 2416.49,772.924 2418.5,771.5C 2435.87,766.214 2452.53,768.047 2468.5,777C 2471.04,779.37 2473.37,781.87 2475.5,784.5C 2475.43,786.027 2476.09,787.027 2477.5,787.5C 2480.36,790.546 2482.19,794.213 2483,798.5C 2485.98,813.403 2485.48,828.236 2481.5,843C 2481.83,843.5 2482.17,844 2482.5,844.5C 2513.67,839.633 2544.67,833.8 2575.5,827C 2590.34,824.474 2605.01,825.14 2619.5,829C 2643.28,841.41 2652.45,860.91 2647,887.5C 2640.33,918.831 2633.67,950.164 2627,981.5C 2616.13,1036.4 2615.3,1091.4 2624.5,1146.5C 2624.29,1149.5 2624.96,1152.16 2626.5,1154.5C 2629.7,1165.57 2634.03,1176.24 2639.5,1186.5C 2639.43,1188.03 2640.09,1189.03 2641.5,1189.5C 2641.43,1191.03 2642.09,1192.03 2643.5,1192.5C 2644.83,1193.17 2645.83,1194.17 2646.5,1195.5C 2646.83,1197.83 2648.17,1199.17 2650.5,1199.5C 2660.83,1208.49 2672.49,1210.66 2685.5,1206C 2691.87,1203.12 2697.53,1199.29 2702.5,1194.5C 2703.91,1194.03 2704.57,1193.03 2704.5,1191.5C 2704.83,1190.5 2705.5,1189.83 2706.5,1189.5C 2707.91,1189.03 2708.57,1188.03 2708.5,1186.5C 2714.48,1175.88 2719.48,1164.88 2723.5,1153.5C 2724.92,1151.49 2725.59,1149.15 2725.5,1146.5C 2725.51,1144.45 2725.84,1142.45 2726.5,1140.5C 2714.18,1075.02 2715.01,1009.69 2729,944.5C 2730.21,938.96 2731.71,933.627 2733.5,928.5C 2734.92,926.485 2735.59,924.152 2735.5,921.5C 2742.35,896.811 2752.68,873.811 2766.5,852.5C 2767.91,852.027 2768.57,851.027 2768.5,849.5C 2769.91,849.027 2770.57,848.027 2770.5,846.5C 2771.91,846.027 2772.57,845.027 2772.5,843.5C 2773.91,843.027 2774.57,842.027 2774.5,840.5C 2775.91,840.027 2776.57,839.027 2776.5,837.5C 2776.5,836.833 2776.83,836.5 2777.5,836.5C 2778.91,836.027 2779.57,835.027 2779.5,833.5C 2780.44,830.891 2782.11,828.891 2784.5,827.5C 2785.91,827.027 2786.57,826.027 2786.5,824.5C 2790.83,819.5 2795.5,814.833 2800.5,810.5C 2802.75,809.92 2804.42,808.587 2805.5,806.5C 2810.13,801.849 2815.46,798.182 2821.5,795.5C 2823.03,795.573 2824.03,794.906 2824.5,793.5C 2847.68,781.138 2872.35,777.304 2898.5,782C 2925.33,787.241 2947.33,800.407 2964.5,821.5C 2964.43,823.027 2965.09,824.027 2966.5,824.5C 2969.55,826.918 2971.88,829.918 2973.5,833.5C 2973.37,834.376 2973.7,835.043 2974.5,835.5C 2975.5,827.528 2975.83,819.528 2975.5,811.5C 2978.08,803.756 2983.42,798.922 2991.5,797C 3016.12,795.258 3039.46,799.925 3061.5,811C 3064.02,812.697 3066.35,814.53 3068.5,816.5C 3068.43,818.027 3069.09,819.027 3070.5,819.5C 3072.14,820.749 3073.3,822.416 3074,824.5C 3073.08,879.167 3071.74,933.834 3070,988.5C 3069.13,1030.51 3069.47,1072.51 3071,1114.5C 3071.66,1138.43 3075.66,1161.76 3083,1184.5C 3084.92,1188.69 3087.09,1192.69 3089.5,1196.5C 3090.17,1199.17 3091.83,1200.83 3094.5,1201.5C 3107.88,1210.94 3121.22,1210.77 3134.5,1201C 3140.44,1195.57 3145.77,1189.74 3150.5,1183.5C 3151.91,1183.03 3152.57,1182.03 3152.5,1180.5C 3160.84,1166.16 3167.84,1151.16 3173.5,1135.5C 3175.21,1134.36 3175.88,1132.7 3175.5,1130.5C 3179.37,1118.37 3182.54,1106.04 3185,1093.5C 3185.36,997.465 3186.52,901.465 3188.5,805.5C 3189.92,803.485 3190.59,801.152 3190.5,798.5C 3194.78,791.527 3201.12,788.527 3209.5,789.5C 3231.78,791.654 3253.45,796.487 3274.5,804C 3279.71,807.923 3282.71,813.09 3283.5,819.5C 3283.33,875.834 3283.5,932.168 3284,988.5C 3284.61,986.846 3285.11,985.179 3285.5,983.5C 3301.11,932.489 3318.61,882.155 3338,832.5C 3342.02,823.786 3346.52,815.453 3351.5,807.5C 3352.91,807.027 3353.57,806.027 3353.5,804.5C 3354.08,802.251 3355.41,800.585 3357.5,799.5C 3359.17,798.5 3360.5,797.167 3361.5,795.5C 3367.83,790.428 3375.16,788.095 3383.5,788.5C 3408.14,789.877 3430.14,798.044 3449.5,813C 3452.09,815.086 3454.09,817.586 3455.5,820.5C 3455.43,822.027 3456.09,823.027 3457.5,823.5C 3457.43,825.027 3458.09,826.027 3459.5,826.5C 3463.99,834.115 3466.49,842.448 3467,851.5C 3467.02,919.865 3470.52,988.032 3477.5,1056C 3477.83,1056.5 3478.17,1057 3478.5,1057.5C 3485.54,1013.01 3495.87,969.347 3509.5,926.5C 3511.07,924.898 3511.74,922.898 3511.5,920.5C 3522.76,882.014 3536.76,844.68 3553.5,808.5C 3554.91,808.027 3555.57,807.027 3555.5,805.5C 3557.26,804.738 3558.26,803.404 3558.5,801.5C 3563.21,795.137 3569.55,791.304 3577.5,790C 3594.6,788.689 3610.93,791.689 3626.5,799C 3640.55,804.19 3653.55,811.19 3665.5,820C 3668.42,822.416 3670.76,825.25 3672.5,828.5C 3672.43,830.027 3673.09,831.027 3674.5,831.5C 3679.15,838.712 3681.15,846.712 3680.5,855.5C 3675.55,939.842 3675.05,1024.18 3679,1108.5C 3680.47,1131.65 3685.47,1153.99 3694,1175.5C 3696.26,1180.35 3698.76,1185.02 3701.5,1189.5C 3701.43,1191.03 3702.09,1192.03 3703.5,1192.5C 3707.05,1196.21 3711.05,1199.38 3715.5,1202C 3720.3,1204.03 3725.3,1204.87 3730.5,1204.5C 3733.01,1204.95 3735.01,1204.28 3736.5,1202.5C 3738.5,1201.5 3740.5,1200.5 3742.5,1199.5C 3745.5,1198.5 3747.5,1196.5 3748.5,1193.5C 3754.96,1184.25 3760.13,1174.25 3764,1163.5C 3769.45,1146.04 3774.11,1128.38 3778,1110.5C 3779.45,1105.6 3781.45,1100.93 3784,1096.5C 3788.62,1090.95 3794.45,1089.11 3801.5,1091C 3804.11,1091.79 3806.11,1093.29 3807.5,1095.5C 3807.43,1097.03 3808.09,1098.03 3809.5,1098.5C 3811.33,1101.14 3812.49,1104.14 3813,1107.5C 3814.05,1149.32 3804.38,1188.65 3784,1225.5C 3756.12,1266.86 3718.62,1278.69 3671.5,1261C 3666.11,1258.65 3661.11,1255.81 3656.5,1252.5C 3656.03,1251.09 3655.03,1250.43 3653.5,1250.5C 3649.43,1248.79 3646.09,1246.13 3643.5,1242.5C 3642.74,1240.74 3641.4,1239.74 3639.5,1239.5C 3625.73,1226.19 3615.23,1210.52 3608,1192.5C 3596.34,1159.86 3589.67,1126.19 3588,1091.5C 3584.01,1030.86 3583.51,970.192 3586.5,909.5C 3586.48,907.366 3585.98,905.366 3585,903.5C 3544.94,988.051 3520.94,1077.05 3513,1170.5C 3511.96,1185.82 3511.29,1201.15 3511,1216.5C 3507.61,1223.55 3502.11,1228.05 3494.5,1230C 3476.39,1234.22 3458.72,1232.89 3441.5,1226C 3440.43,1225.15 3439.43,1224.31 3438.5,1223.5C 3438.03,1222.09 3437.03,1221.43 3435.5,1221.5C 3425.31,1213.82 3417.48,1204.15 3412,1192.5C 3406.47,1176.21 3402.47,1159.54 3400,1142.5C 3389.36,1066.54 3383.36,990.207 3382,913.5C 3381.88,911.427 3380.88,910.093 3379,909.5C 3376.72,910.776 3374.72,912.443 3373,914.5C 3355.11,946.149 3341.11,979.483 3331,1014.5C 3318.89,1050.92 3311.23,1088.26 3308,1126.5C 3305.46,1163.79 3303.79,1201.13 3303,1238.5C 3303.35,1247.29 3300.85,1255.12 3295.5,1262C 3293.73,1263.44 3291.73,1264.44 3289.5,1265C 3261.31,1271.81 3233.64,1270.14 3206.5,1260C 3201.09,1257.58 3196.59,1254.08 3193,1249.5C 3189.85,1235.69 3188.35,1221.69 3188.5,1207.5C 3188.67,1202.49 3188.5,1197.49 3188,1192.5C 3186.96,1193.24 3186.46,1194.24 3186.5,1195.5C 3178.22,1218.23 3164.89,1237.39 3146.5,1253C 3126.96,1266.63 3105.29,1271.63 3081.5,1268C 3066.4,1265.7 3052.73,1260.2 3040.5,1251.5C 3040.03,1250.09 3039.03,1249.43 3037.5,1249.5C 3036.83,1249.5 3036.5,1249.17 3036.5,1248.5C 3036.03,1247.09 3035.03,1246.43 3033.5,1246.5C 3011.18,1228.89 2997.85,1205.89 2993.5,1177.5C 2993.77,1175.57 2993.27,1173.9 2992,1172.5C 2991.54,1173.09 2991.37,1173.76 2991.5,1174.5C 2970.33,1218.92 2936.33,1248.76 2889.5,1264C 2852.38,1274.32 2818.05,1268.65 2786.5,1247C 2783.33,1245 2780.67,1242.5 2778.5,1239.5C 2777.74,1237.74 2776.4,1236.74 2774.5,1236.5C 2762.85,1225.18 2753.51,1212.18 2746.5,1197.5C 2745.38,1196.24 2744.71,1196.58 2744.5,1198.5C 2730.44,1230.39 2707.11,1252.56 2674.5,1265C 2642.98,1272.66 2614.32,1266.83 2588.5,1247.5C 2588.03,1246.09 2587.03,1245.43 2585.5,1245.5C 2582.89,1244.56 2580.89,1242.89 2579.5,1240.5C 2579.03,1239.09 2578.03,1238.43 2576.5,1238.5C 2553.95,1217.76 2538.79,1192.43 2531,1162.5C 2520.62,1118.36 2517.62,1073.7 2522,1028.5C 2525.31,989.334 2531.64,950.668 2541,912.5C 2541.67,909.833 2541.67,907.167 2541,904.5C 2537.7,903.009 2534.2,902.343 2530.5,902.5C 2508.86,903.928 2487.19,904.595 2465.5,904.5C 2425.6,1022.02 2365.44,1127.36 2285,1220.5C 2285.13,1261.5 2285.63,1302.5 2286.5,1343.5C 2287.08,1390.89 2281.58,1437.56 2270,1483.5C 2257.03,1540.45 2224.2,1581.29 2171.5,1606C 2130.86,1620.94 2090.86,1619.28 2051.5,1601C 2044.93,1597.89 2038.93,1594.06 2033.5,1589.5C 2033.03,1588.09 2032.03,1587.43 2030.5,1587.5C 2027.22,1585.88 2024.55,1583.55 2022.5,1580.5C 2021.74,1578.74 2020.4,1577.74 2018.5,1577.5C 2001.47,1560.09 1991.97,1539.09 1990,1514.5C 1987.28,1483.73 1994.11,1455.4 2010.5,1429.5C 2011.91,1429.03 2012.57,1428.03 2012.5,1426.5C 2012.33,1425.51 2012.66,1424.84 2013.5,1424.5C 2014.91,1424.03 2015.57,1423.03 2015.5,1421.5C 2016.91,1421.03 2017.57,1420.03 2017.5,1418.5C 2018.91,1418.03 2019.57,1417.03 2019.5,1415.5C 2020.91,1415.03 2021.57,1414.03 2021.5,1412.5C 2027.1,1403.9 2033.44,1395.9 2040.5,1388.5C 2041.91,1388.03 2042.57,1387.03 2042.5,1385.5C 2043.5,1383.83 2044.83,1382.5 2046.5,1381.5C 2047.91,1381.03 2048.57,1380.03 2048.5,1378.5C 2051.17,1375.17 2054.17,1372.17 2057.5,1369.5C 2059.91,1368.09 2061.58,1366.09 2062.5,1363.5C 2064.5,1360.83 2066.83,1358.5 2069.5,1356.5C 2078.11,1349.56 2086.11,1341.89 2093.5,1333.5C 2096.17,1330.17 2099.17,1327.17 2102.5,1324.5C 2106.1,1322.57 2109.1,1319.9 2111.5,1316.5C 2113.17,1314.17 2115.17,1312.17 2117.5,1310.5C 2120.76,1308.91 2123.43,1306.57 2125.5,1303.5C 2126.83,1301.5 2128.5,1299.83 2130.5,1298.5C 2133.43,1297.24 2135.76,1295.24 2137.5,1292.5C 2138.83,1290.5 2140.5,1288.83 2142.5,1287.5C 2145.43,1286.24 2147.76,1284.24 2149.5,1281.5C 2150.83,1279.5 2152.5,1277.83 2154.5,1276.5C 2157.43,1275.24 2159.76,1273.24 2161.5,1270.5C 2162.83,1268.5 2164.5,1266.83 2166.5,1265.5C 2169.43,1264.24 2171.76,1262.24 2173.5,1259.5C 2174.83,1257.5 2176.5,1255.83 2178.5,1254.5C 2181.76,1252.91 2184.43,1250.57 2186.5,1247.5C 2188.46,1245.04 2190.63,1242.7 2193,1240.5C 2192.71,1227.85 2192.54,1215.19 2192.5,1202.5C 2192.66,1199.81 2192.5,1197.15 2192,1194.5C 2191.28,1195.04 2190.78,1195.71 2190.5,1196.5C 2157.97,1246.77 2111.64,1270.6 2051.5,1268C 2035.04,1266.13 2020.04,1260.63 2006.5,1251.5C 2006.03,1250.09 2005.03,1249.43 2003.5,1249.5C 2003.03,1248.09 2002.03,1247.43 2000.5,1247.5C 1999.83,1247.5 1999.5,1247.17 1999.5,1246.5C 1999.03,1245.09 1998.03,1244.43 1996.5,1244.5C 1978.66,1231 1965.32,1214 1956.5,1193.5C 1955.83,1190.83 1955.17,1190.83 1954.5,1193.5C 1943.93,1219.57 1926.93,1240.41 1903.5,1256C 1865.85,1274.9 1829.85,1272.23 1795.5,1248C 1794.29,1246.96 1793.29,1245.79 1792.5,1244.5C 1791.74,1242.74 1790.4,1241.74 1788.5,1241.5C 1770.47,1224.78 1759.81,1204.12 1756.5,1179.5C 1756.8,1177.4 1756.47,1175.4 1755.5,1173.5C 1754.89,1173.62 1754.56,1173.96 1754.5,1174.5C 1735,1215.17 1704.33,1244 1662.5,1261C 1633.15,1270.96 1603.82,1270.96 1574.5,1261C 1566.14,1257.5 1558.48,1253 1551.5,1247.5C 1551.03,1246.09 1550.03,1245.43 1548.5,1245.5C 1545.22,1243.88 1542.55,1241.55 1540.5,1238.5C 1540.03,1237.09 1539.03,1236.43 1537.5,1236.5C 1513.5,1211.84 1497.83,1182.51 1490.5,1148.5C 1490.69,1146.9 1490.19,1145.56 1489,1144.5C 1488.54,1145.09 1488.37,1145.76 1488.5,1146.5C 1473.87,1190.3 1448.54,1226.46 1412.5,1255C 1390.1,1269.2 1366.1,1272.53 1340.5,1265C 1330.84,1262.63 1322.17,1258.46 1314.5,1252.5C 1314.03,1251.09 1313.03,1250.43 1311.5,1250.5C 1309.25,1249.92 1307.58,1248.59 1306.5,1246.5C 1306.03,1245.09 1305.03,1244.43 1303.5,1244.5C 1285.35,1227.57 1272.18,1207.24 1264,1183.5C 1254.39,1155.94 1248.55,1127.61 1246.5,1098.5C 1246.81,1096.08 1246.47,1093.74 1245.5,1091.5C 1244.7,1091.96 1244.37,1092.62 1244.5,1093.5C 1224.72,1147.09 1193.06,1192.26 1149.5,1229C 1107.05,1260.2 1059.38,1273.87 1006.5,1270C 977.455,1268.13 949.455,1261.79 922.5,1251C 917.777,1248.98 913.443,1246.48 909.5,1243.5C 909.027,1242.09 908.027,1241.43 906.5,1241.5C 897.27,1236.78 892.27,1229.28 891.5,1219C 893.817,1201.54 900.817,1186.37 912.5,1173.5C 914.262,1172.74 915.262,1171.4 915.5,1169.5C 918.089,1168.58 920.089,1166.91 921.5,1164.5C 921.833,1163.5 922.5,1162.83 923.5,1162.5C 925.404,1162.26 926.738,1161.26 927.5,1159.5C 933.795,1156.1 940.461,1155.6 947.5,1158C 960.514,1166.17 973.18,1174.84 985.5,1184C 997.077,1190.97 1009.58,1195.14 1023,1196.5C 1037.69,1195.24 1049.52,1188.91 1058.5,1177.5C 1059.91,1177.03 1060.57,1176.03 1060.5,1174.5C 1071.56,1152.68 1073.39,1130.01 1066,1106.5C 1058.91,1087.43 1048.57,1070.43 1035,1055.5C 1027.96,1048.63 1021.13,1041.63 1014.5,1034.5C 1013.42,1032.41 1011.75,1031.08 1009.5,1030.5C 1006.17,1027.83 1003.17,1024.83 1000.5,1021.5C 1000.03,1020.09 999.027,1019.43 997.5,1019.5C 994.167,1016.83 991.167,1013.83 988.5,1010.5C 988.027,1009.09 987.027,1008.43 985.5,1008.5C 982.5,1006.17 979.833,1003.5 977.5,1000.5C 976.738,998.738 975.404,997.738 973.5,997.5C 971.537,996.04 969.704,994.373 968,992.5C 933.585,1050.33 898.918,1108 864,1165.5C 847.481,1191.31 827.981,1214.81 805.5,1236C 793.033,1246.74 779.366,1255.74 764.5,1263C 747.394,1269.51 730.06,1270.18 712.5,1265C 709.609,1263.73 706.942,1262.23 704.5,1260.5C 704.027,1259.09 703.027,1258.43 701.5,1258.5C 700.833,1258.5 700.5,1258.17 700.5,1257.5C 700.027,1256.09 699.027,1255.43 697.5,1255.5C 685.823,1243.83 677.99,1229.83 674,1213.5C 668.43,1191.84 665.097,1169.84 664,1147.5C 662.556,1120.85 662.222,1094.18 663,1067.5C 665.861,1002.51 668.194,937.507 670,872.5C 669.333,871.833 668.667,871.167 668,870.5C 663.752,872.743 660.086,875.743 657,879.5C 622.36,921.57 595.026,968.237 575,1019.5C 544.44,1097.41 523.107,1177.74 511,1260.5C 506.326,1264.75 500.826,1267.25 494.5,1268C 477.665,1269.91 460.999,1268.91 444.5,1265C 434.667,1260.5 427.5,1253.33 423,1243.5C 416.416,1225.1 413.416,1206.1 414,1186.5C 413.85,1096.83 414.184,1007.17 415,917.5C 415.023,877.454 415.69,837.454 417,797.5C 419.697,792.564 423.864,789.73 429.5,789C 455.932,789.108 480.598,795.775 503.5,809C 504.787,810.41 505.954,811.91 507,813.5C 508.147,830.937 508.647,848.437 508.5,866C 508.298,892.503 507.965,919.003 507.5,945.5C 506.336,976.997 506.169,1008.66 507,1040.5C 507.791,1039.26 508.291,1037.92 508.5,1036.5C 520.3,1001.6 532.8,966.935 546,932.5C 556.522,906.45 569.355,881.784 584.5,858.5C 585.906,858.027 586.573,857.027 586.5,855.5C 587.906,855.027 588.573,854.027 588.5,852.5C 589.906,852.027 590.573,851.027 590.5,849.5C 590.5,848.833 590.833,848.5 591.5,848.5C 592.906,848.027 593.573,847.027 593.5,845.5C 594.124,843.246 595.457,841.579 597.5,840.5C 598.906,840.027 599.573,839.027 599.5,837.5C 601.453,833.88 604.119,830.88 607.5,828.5C 608.906,828.027 609.573,827.027 609.5,825.5C 609.833,824.5 610.5,823.833 611.5,823.5C 615.1,821.57 618.1,818.903 620.5,815.5C 620.833,814.5 621.5,813.833 622.5,813.5C 624.749,812.92 626.415,811.587 627.5,809.5C 627.5,808.833 627.833,808.5 628.5,808.5C 630.027,808.573 631.027,807.906 631.5,806.5C 651.067,791.276 673.067,786.109 697.5,791C 720.869,799.081 741.702,811.248 760,827.5C 763.87,831.905 766.703,836.905 768.5,842.5C 768.41,845.152 769.076,847.485 770.5,849.5C 771.166,855.825 771.5,862.325 771.5,869C 769.5,921.827 767.667,974.661 766,1027.5C 764.941,1064.2 765.607,1100.87 768,1137.5C 768.809,1147.55 771.142,1157.21 775,1166.5C 776.049,1168.62 777.549,1170.28 779.5,1171.5C 779.821,1173.05 780.821,1173.71 782.5,1173.5C 787.978,1173.22 792.978,1171.55 797.5,1168.5C 799.027,1168.57 800.027,1167.91 800.5,1166.5C 800.5,1165.83 800.833,1165.5 801.5,1165.5C 804.5,1164.5 806.5,1162.5 807.5,1159.5C 810.862,1155.81 814.195,1152.14 817.5,1148.5C 818.906,1148.03 819.573,1147.03 819.5,1145.5C 819.5,1144.83 819.833,1144.5 820.5,1144.5C 821.906,1144.03 822.573,1143.03 822.5,1141.5C 823.026,1139.77 824.026,1138.44 825.5,1137.5C 826.906,1137.03 827.573,1136.03 827.5,1134.5C 828.906,1134.03 829.573,1133.03 829.5,1131.5C 830.906,1131.03 831.573,1130.03 831.5,1128.5C 832.906,1128.03 833.573,1127.03 833.5,1125.5C 834.906,1125.03 835.573,1124.03 835.5,1122.5C 837.919,1117.99 840.586,1113.66 843.5,1109.5C 844.906,1109.03 845.573,1108.03 845.5,1106.5C 848.585,1100.66 851.918,1094.99 855.5,1089.5C 856.906,1089.03 857.573,1088.03 857.5,1086.5C 882.464,1043.32 906.464,999.491 929.5,955C 921.101,945.244 914.268,934.411 909,922.5C 901.153,902.87 900.653,883.204 907.5,863.5C 908.924,861.485 909.59,859.152 909.5,856.5C 913.687,842.446 920.687,830.113 930.5,819.5C 931.906,819.027 932.573,818.027 932.5,816.5C 934.5,813.833 936.833,811.5 939.5,809.5C 942.089,808.581 944.089,806.914 945.5,804.5C 946.891,802.11 948.891,800.443 951.5,799.5C 953.027,799.573 954.027,798.906 954.5,797.5C 956.027,797.573 957.027,796.906 957.5,795.5C 963.804,790.85 970.804,787.516 978.5,785.5C 981.152,785.59 983.485,784.924 985.5,783.5C 992.84,781.089 1000.51,780.089 1008.5,780.5C 1049.11,779.267 1065.94,798.6 1059,838.5C 1048.5,872.346 1031.67,902.513 1008.5,929C 1041.53,953.181 1074.19,977.847 1106.5,1003C 1115.34,1010.67 1123.67,1018.84 1131.5,1027.5C 1131.74,1029.4 1132.74,1030.74 1134.5,1031.5C 1140.38,1036.94 1145.05,1043.27 1148.5,1050.5C 1148.43,1052.03 1149.09,1053.03 1150.5,1053.5C 1166.51,1080.61 1171.18,1109.61 1164.5,1140.5C 1163.22,1141.39 1163.22,1142.39 1164.5,1143.5C 1165.52,1143.14 1166.19,1142.48 1166.5,1141.5C 1171.17,1136.17 1176.17,1131.17 1181.5,1126.5C 1182.91,1126.03 1183.57,1125.03 1183.5,1123.5C 1184.5,1121.83 1185.83,1120.5 1187.5,1119.5C 1189.26,1118.74 1190.26,1117.4 1190.5,1115.5C 1193.6,1110.95 1196.94,1106.61 1200.5,1102.5C 1201.91,1102.03 1202.57,1101.03 1202.5,1099.5C 1203.91,1099.03 1204.57,1098.03 1204.5,1096.5C 1205.91,1096.03 1206.57,1095.03 1206.5,1093.5C 1223.71,1066.06 1235.54,1036.4 1242,1004.5C 1242.5,939.166 1243,873.833 1243.5,808.5C 1244.5,795.01 1244.83,781.344 1244.5,767.5C 1239.5,767.5 1234.5,767.5 1229.5,767.5C 1204.16,767.367 1178.83,766.867 1153.5,766C 1131.22,770.049 1121.72,760.883 1125,738.5C 1126.09,724.062 1130.26,710.728 1137.5,698.5C 1138.91,698.027 1139.57,697.027 1139.5,695.5C 1139.5,694.833 1139.83,694.5 1140.5,694.5C 1141.83,693.833 1142.83,692.833 1143.5,691.5C 1144.06,690.21 1145.06,689.377 1146.5,689C 1180.83,689.949 1215.16,691.116 1249.5,692.5C 1250.08,652.133 1251.58,611.799 1254,571.5C 1254.21,565.361 1255.21,559.361 1257,553.5C 1258.27,550.064 1260.44,547.397 1263.5,545.5C 1265.03,545.573 1266.03,544.906 1266.5,543.5C 1267.26,542.732 1268.26,542.232 1269.5,542C 1300.45,542.071 1329.78,549.071 1357.5,563C 1361.78,565.944 1364.45,569.944 1365.5,575C 1363.21,615.487 1361.21,655.987 1359.5,696.5C 1394.48,698.666 1429.48,700.499 1464.5,702C 1474.87,702.67 1485.2,703.67 1495.5,705C 1502.07,705.939 1505.57,709.773 1506,716.5C 1507.36,733.058 1503.69,748.392 1495,762.5C 1493.13,764.709 1490.96,766.542 1488.5,768C 1475.55,769.234 1462.55,769.901 1449.5,770C 1420.17,770.5 1390.84,770.667 1361.5,770.5 Z M 1696.5,865.5 C 1696.97,866.906 1697.97,867.573 1699.5,867.5C 1699.83,868.5 1700.5,869.167 1701.5,869.5C 1701.97,870.906 1702.97,871.573 1704.5,871.5C 1715.7,884.232 1723.54,898.898 1728,915.5C 1734.69,942.58 1737.86,970.08 1737.5,998C 1738.21,1044.67 1731.38,1090.17 1717,1134.5C 1712.35,1145.79 1707.19,1156.79 1701.5,1167.5C 1700.09,1167.97 1699.43,1168.97 1699.5,1170.5C 1698.09,1170.97 1697.43,1171.97 1697.5,1173.5C 1695.94,1174.94 1694.6,1176.61 1693.5,1178.5C 1691.74,1179.26 1690.74,1180.6 1690.5,1182.5C 1687.5,1184.83 1684.83,1187.5 1682.5,1190.5C 1680.6,1190.74 1679.26,1191.74 1678.5,1193.5C 1652.9,1211.93 1630.23,1208.93 1610.5,1184.5C 1610.57,1182.97 1609.91,1181.97 1608.5,1181.5C 1595.25,1156.87 1587.42,1130.53 1585,1102.5C 1579.57,1047.21 1583.23,992.547 1596,938.5C 1601.54,917.751 1610.54,898.751 1623,881.5C 1643.48,857.57 1667.98,852.237 1696.5,865.5 Z M 2150.5,865.5 C 2150.97,866.906 2151.97,867.573 2153.5,867.5C 2167.29,881.401 2176.12,898.068 2180,917.5C 2182.32,928.065 2183.98,938.732 2185,949.5C 2189.62,1002.74 2186.12,1055.4 2174.5,1107.5C 2173.08,1109.51 2172.41,1111.85 2172.5,1114.5C 2167.56,1131.3 2161.23,1147.63 2153.5,1163.5C 2152.09,1163.97 2151.43,1164.97 2151.5,1166.5C 2150.66,1166.84 2150.33,1167.51 2150.5,1168.5C 2149.09,1168.97 2148.43,1169.97 2148.5,1171.5C 2147.09,1171.97 2146.43,1172.97 2146.5,1174.5C 2145.83,1174.5 2145.5,1174.83 2145.5,1175.5C 2144.09,1175.97 2143.43,1176.97 2143.5,1178.5C 2142.17,1179.17 2141.17,1180.17 2140.5,1181.5C 2139.09,1181.97 2138.43,1182.97 2138.5,1184.5C 2136.5,1185.83 2134.83,1187.5 2133.5,1189.5C 2131.25,1190.08 2129.58,1191.41 2128.5,1193.5C 2123.49,1197.01 2118.16,1200.01 2112.5,1202.5C 2110.6,1202.8 2108.93,1203.46 2107.5,1204.5C 2095.75,1207.09 2084.75,1205.26 2074.5,1199C 2070.33,1195.66 2066.33,1192.16 2062.5,1188.5C 2062.57,1186.97 2061.91,1185.97 2060.5,1185.5C 2059.53,1183.2 2058.19,1181.2 2056.5,1179.5C 2056.57,1177.97 2055.91,1176.97 2054.5,1176.5C 2041.42,1146.93 2034.25,1115.93 2033,1083.5C 2030.14,1035.4 2034.81,988.067 2047,941.5C 2053.31,919.547 2063.31,899.547 2077,881.5C 2097.69,858.065 2122.19,852.731 2150.5,865.5 Z M 2933.5,865.5 C 2933.97,866.906 2934.97,867.573 2936.5,867.5C 2937.17,868.833 2938.17,869.833 2939.5,870.5C 2940.5,872.167 2941.83,873.5 2943.5,874.5C 2957.44,892.406 2965.94,912.74 2969,935.5C 2977.32,994.607 2974.82,1053.27 2961.5,1111.5C 2960.08,1113.51 2959.41,1115.85 2959.5,1118.5C 2953.9,1135.38 2946.9,1151.71 2938.5,1167.5C 2937.09,1167.97 2936.43,1168.97 2936.5,1170.5C 2935.6,1171.29 2934.93,1172.29 2934.5,1173.5C 2933.09,1173.97 2932.43,1174.97 2932.5,1176.5C 2931.83,1176.5 2931.5,1176.83 2931.5,1177.5C 2929.74,1178.26 2928.74,1179.6 2928.5,1181.5C 2922.25,1188.25 2915.25,1194.09 2907.5,1199C 2891.01,1208.2 2875.01,1207.53 2859.5,1197C 2854.94,1192.6 2850.6,1188.1 2846.5,1183.5C 2846.57,1181.97 2845.91,1180.97 2844.5,1180.5C 2832.4,1157.36 2825.24,1132.7 2823,1106.5C 2817.17,1049.6 2820.5,993.269 2833,937.5C 2838.14,916.034 2847.48,896.701 2861,879.5C 2881.77,857.098 2905.93,852.432 2933.5,865.5 Z M 2196.5,1312.5 C 2197.5,1335.99 2197.83,1359.66 2197.5,1383.5C 2196.75,1424.08 2191.58,1464.08 2182,1503.5C 2178.57,1515.62 2174.07,1527.29 2168.5,1538.5C 2167.09,1538.97 2166.43,1539.97 2166.5,1541.5C 2164.51,1544.13 2162.51,1546.8 2160.5,1549.5C 2159.09,1549.97 2158.43,1550.97 2158.5,1552.5C 2157.5,1552.83 2156.83,1553.5 2156.5,1554.5C 2154.6,1554.74 2153.26,1555.74 2152.5,1557.5C 2140.7,1565.82 2127.53,1570.49 2113,1571.5C 2096.98,1570.9 2083.81,1564.57 2073.5,1552.5C 2073.57,1550.97 2072.91,1549.97 2071.5,1549.5C 2064.18,1535.71 2061.68,1521.05 2064,1505.5C 2067.42,1484.56 2074.42,1464.9 2085,1446.5C 2095.43,1428.63 2107.1,1411.63 2120,1395.5C 2144.23,1366.76 2169.73,1339.1 2196.5,1312.5 Z"/></g>
<g><path style="opacity:1" fill="#7a7a7a" d="M 1266.5,543.5 C 1266.03,544.906 1265.03,545.573 1263.5,545.5C 1263.97,544.094 1264.97,543.427 1266.5,543.5 Z"/></g>
<g><path style="opacity:1" fill="#757575" d="M 175.5,570.5 C 175.027,571.906 174.027,572.573 172.5,572.5C 172.973,571.094 173.973,570.427 175.5,570.5 Z"/></g>
<g><path style="opacity:1" fill="#757575" d="M 168.5,575.5 C 167.738,577.262 166.404,578.262 164.5,578.5C 165.262,576.738 166.596,575.738 168.5,575.5 Z"/></g>
<g><path style="opacity:1" fill="#797979" d="M 164.5,578.5 C 163.738,580.262 162.404,581.262 160.5,581.5C 161.262,579.738 162.596,578.738 164.5,578.5 Z"/></g>
<g><path style="opacity:1" fill="#747474" d="M 159.5,582.5 C 158.738,584.262 157.404,585.262 155.5,585.5C 156.262,583.738 157.596,582.738 159.5,582.5 Z"/></g>
<g><path style="opacity:1" fill="#666666" d="M 146.5,593.5 C 145.089,595.914 143.089,597.581 140.5,598.5C 141.911,596.086 143.911,594.419 146.5,593.5 Z"/></g>
<g><path style="opacity:1" fill="#848484" d="M 118.5,620.5 C 118.262,622.404 117.262,623.738 115.5,624.5C 115.738,622.596 116.738,621.262 118.5,620.5 Z"/></g>
<g><path style="opacity:1" fill="#767676" d="M 99.5,643.5 C 99.2624,645.404 98.2624,646.738 96.5,647.5C 96.7376,645.596 97.7376,644.262 99.5,643.5 Z"/></g>
<g><path style="opacity:1" fill="#878787" d="M 90.5,655.5 C 90.573,657.027 89.9063,658.027 88.5,658.5C 88.427,656.973 89.0937,655.973 90.5,655.5 Z"/></g>
<g><path style="opacity:1" fill="#787878" d="M 88.5,658.5 C 88.573,660.027 87.9063,661.027 86.5,661.5C 86.427,659.973 87.0937,658.973 88.5,658.5 Z"/></g>
<g><path style="opacity:1" fill="#919191" d="M 78.5,673.5 C 78.573,675.027 77.9063,676.027 76.5,676.5C 76.427,674.973 77.0937,673.973 78.5,673.5 Z"/></g>
<g><path style="opacity:1" fill="#818181" d="M 1143.5,691.5 C 1142.83,692.833 1141.83,693.833 1140.5,694.5C 1140.5,692.5 1141.5,691.5 1143.5,691.5 Z"/></g>
<g><path style="opacity:1" fill="#7a7a7a" d="M 1139.5,695.5 C 1139.57,697.027 1138.91,698.027 1137.5,698.5C 1137.43,696.973 1138.09,695.973 1139.5,695.5 Z"/></g>
<g><path style="opacity:1" fill="#686868" d="M 37.5,762.5 C 37.5905,765.152 36.9238,767.485 35.5,769.5C 35.4095,766.848 36.0762,764.515 37.5,762.5 Z"/></g>
<g><path style="opacity:1" fill="#d4d4d4" d="M 1361.5,770.5 C 1360.79,771.404 1359.79,771.737 1358.5,771.5C 1358.77,773.099 1358.43,774.432 1357.5,775.5C 1357.5,773.833 1357.5,772.167 1357.5,770.5C 1358.83,770.5 1360.17,770.5 1361.5,770.5 Z"/></g>
<g><path style="opacity:1" fill="#606060" d="M 2418.5,771.5 C 2416.49,772.924 2414.15,773.59 2411.5,773.5C 2413.51,772.076 2415.85,771.41 2418.5,771.5 Z"/></g>
<g><path style="opacity:1" fill="#747474" d="M 35.5,769.5 C 35.5905,772.152 34.9238,774.485 33.5,776.5C 33.4095,773.848 34.0762,771.515 35.5,769.5 Z"/></g>
<g><path style="opacity:1" fill="#7d7d7d" d="M 2399.5,779.5 C 2399.03,780.906 2398.03,781.573 2396.5,781.5C 2396.97,780.094 2397.97,779.427 2399.5,779.5 Z"/></g>
<g><path style="opacity:1" fill="#5c5c5c" d="M 985.5,783.5 C 983.485,784.924 981.152,785.59 978.5,785.5C 980.515,784.076 982.848,783.41 985.5,783.5 Z"/></g>
<g><path style="opacity:1" fill="#626262" d="M 1614.5,783.5 C 1612.49,784.924 1610.15,785.59 1607.5,785.5C 1609.51,784.076 1611.85,783.41 1614.5,783.5 Z"/></g>
<g><path style="opacity:1" fill="#8b8b8b" d="M 2393.5,784.5 C 2392.17,786.5 2390.5,788.167 2388.5,789.5C 2389.17,786.833 2390.83,785.167 2393.5,784.5 Z"/></g>
<g><path style="opacity:1" fill="#777777" d="M 2475.5,784.5 C 2476.91,784.973 2477.57,785.973 2477.5,787.5C 2476.09,787.027 2475.43,786.027 2475.5,784.5 Z"/></g>
<g><path style="opacity:1" fill="#9f9f9f" d="M 1229.5,767.5 C 1234.5,767.5 1239.5,767.5 1244.5,767.5C 1244.83,781.344 1244.5,795.01 1243.5,808.5C 1243.5,795.167 1243.5,781.833 1243.5,768.5C 1238.64,768.819 1233.97,768.486 1229.5,767.5 Z"/></g>
<g><path style="opacity:1" fill="#747474" d="M 2824.5,793.5 C 2824.03,794.906 2823.03,795.573 2821.5,795.5C 2821.97,794.094 2822.97,793.427 2824.5,793.5 Z"/></g>
<g><path style="opacity:1" fill="#797979" d="M 957.5,795.5 C 957.027,796.906 956.027,797.573 954.5,797.5C 954.973,796.094 955.973,795.427 957.5,795.5 Z"/></g>
<g><path style="opacity:1" fill="#7d7d7d" d="M 2033.5,795.5 C 2033.03,796.906 2032.03,797.573 2030.5,797.5C 2030.97,796.094 2031.97,795.427 2033.5,795.5 Z"/></g>
<g><path style="opacity:1" fill="#7e7e7e" d="M 3361.5,795.5 C 3360.5,797.167 3359.17,798.5 3357.5,799.5C 3357.83,797.167 3359.17,795.833 3361.5,795.5 Z"/></g>
<g><path style="opacity:1" fill="#7c7c7c" d="M 954.5,797.5 C 954.027,798.906 953.027,799.573 951.5,799.5C 951.973,798.094 952.973,797.427 954.5,797.5 Z"/></g>
<g><path style="opacity:1" fill="#7c7c7c" d="M 2382.5,796.5 C 2382.57,798.027 2381.91,799.027 2380.5,799.5C 2380.43,797.973 2381.09,796.973 2382.5,796.5 Z"/></g>
<g><path style="opacity:1" fill="#767676" d="M 1749.5,799.5 C 1749.03,800.906 1748.03,801.573 1746.5,801.5C 1746.97,800.094 1747.97,799.427 1749.5,799.5 Z"/></g>
<g><path style="opacity:1" fill="#7c7c7c" d="M 2024.5,801.5 C 2024.03,802.906 2023.03,803.573 2021.5,803.5C 2021.97,802.094 2022.97,801.427 2024.5,801.5 Z"/></g>
<g><path style="opacity:1" fill="#7a7a7a" d="M 3558.5,801.5 C 3558.26,803.404 3557.26,804.738 3555.5,805.5C 3555.74,803.596 3556.74,802.262 3558.5,801.5 Z"/></g>
<g><path style="opacity:1" fill="#858585" d="M 2195.5,802.5 C 2195.03,803.906 2194.03,804.573 2192.5,804.5C 2192.97,803.094 2193.97,802.427 2195.5,802.5 Z"/></g>
<g><path style="opacity:1" fill="#808080" d="M 3190.5,798.5 C 3190.59,801.152 3189.92,803.485 3188.5,805.5C 3188.41,802.848 3189.08,800.515 3190.5,798.5 Z"/></g>
<g><path style="opacity:1" fill="#787878" d="M 2020.5,804.5 C 2019.74,806.262 2018.4,807.262 2016.5,807.5C 2017.26,805.738 2018.6,804.738 2020.5,804.5 Z"/></g>
<g><path style="opacity:1" fill="#8b8b8b" d="M 3353.5,804.5 C 3353.57,806.027 3352.91,807.027 3351.5,807.5C 3351.43,805.973 3352.09,804.973 3353.5,804.5 Z"/></g>
<g><path style="opacity:1" fill="#7b7b7b" d="M 631.5,806.5 C 631.027,807.906 630.027,808.573 628.5,808.5C 628.973,807.094 629.973,806.427 631.5,806.5 Z"/></g>
<g><path style="opacity:1" fill="#5e5e5e" d="M 945.5,804.5 C 944.089,806.914 942.089,808.581 939.5,809.5C 940.911,807.086 942.911,805.419 945.5,804.5 Z"/></g>
<g><path style="opacity:1" fill="#8a8a8a" d="M 3555.5,805.5 C 3555.57,807.027 3554.91,808.027 3553.5,808.5C 3553.43,806.973 3554.09,805.973 3555.5,805.5 Z"/></g>
<g><path style="opacity:1" fill="#616161" d="M 2805.5,806.5 C 2804.42,808.587 2802.75,809.92 2800.5,810.5C 2801.58,808.413 2803.25,807.08 2805.5,806.5 Z"/></g>
<g><path style="opacity:1" fill="#616161" d="M 1566.5,808.5 C 1565.09,810.914 1563.09,812.581 1560.5,813.5C 1561.91,811.086 1563.91,809.419 1566.5,808.5 Z"/></g>
<g><path style="opacity:1" fill="#5d5d5d" d="M 627.5,809.5 C 626.415,811.587 624.749,812.92 622.5,813.5C 623.585,811.413 625.251,810.08 627.5,809.5 Z"/></g>
<g><path style="opacity:1" fill="#6d6d6d" d="M 2014.5,809.5 C 2012.76,812.243 2010.43,814.243 2007.5,815.5C 2009.24,812.757 2011.57,810.757 2014.5,809.5 Z"/></g>
<g><path style="opacity:1" fill="#9a9a9a" d="M 2280.5,814.5 C 2282.26,815.262 2283.26,816.596 2283.5,818.5C 2281.74,817.738 2280.74,816.404 2280.5,814.5 Z"/></g>
<g><path style="opacity:1" fill="#7a7a7a" d="M 1738.5,812.5 C 1738.67,820.174 1738.5,827.841 1738,835.5C 1737.28,834.956 1736.78,834.289 1736.5,833.5C 1737.17,826.5 1737.83,819.5 1738.5,812.5 Z"/></g>
<g><path style="opacity:1" fill="#959595" d="M 932.5,816.5 C 932.573,818.027 931.906,819.027 930.5,819.5C 930.427,817.973 931.094,816.973 932.5,816.5 Z"/></g>
<g><path style="opacity:1" fill="#4f4f4f" d="M 2975.5,811.5 C 2975.83,819.528 2975.5,827.528 2974.5,835.5C 2973.7,835.043 2973.37,834.376 2973.5,833.5C 2974.17,826.167 2974.83,818.833 2975.5,811.5 Z"/></g>
<g><path style="opacity:1" fill="#7f7f7f" d="M 3068.5,816.5 C 3069.91,816.973 3070.57,817.973 3070.5,819.5C 3069.09,819.027 3068.43,818.027 3068.5,816.5 Z"/></g>
<g><path style="opacity:1" fill="#989898" d="M 2174.5,818.5 C 2175.91,818.973 2176.57,819.973 2176.5,821.5C 2175.09,821.027 2174.43,820.027 2174.5,818.5 Z"/></g>
<g><path style="opacity:1" fill="#686868" d="M 620.5,815.5 C 618.1,818.903 615.1,821.57 611.5,823.5C 613.9,820.097 616.9,817.43 620.5,815.5 Z"/></g>
<g><path style="opacity:1" fill="#8e8e8e" d="M 2002.5,820.5 C 2002.57,822.027 2001.91,823.027 2000.5,823.5C 2000.43,821.973 2001.09,820.973 2002.5,820.5 Z"/></g>
<g><path style="opacity:1" fill="#888888" d="M 2964.5,821.5 C 2965.91,821.973 2966.57,822.973 2966.5,824.5C 2965.09,824.027 2964.43,823.027 2964.5,821.5 Z"/></g>
<g><path style="opacity:1" fill="#858585" d="M 3455.5,820.5 C 3456.91,820.973 3457.57,821.973 3457.5,823.5C 3456.09,823.027 3455.43,822.027 3455.5,820.5 Z"/></g>
<g><path style="opacity:1" fill="#919191" d="M 1728.5,822.5 C 1729.91,822.973 1730.57,823.973 1730.5,825.5C 1729.09,825.027 1728.43,824.027 1728.5,822.5 Z"/></g>
<g><path style="opacity:1" fill="#787878" d="M 2178.5,823.5 C 2180.26,824.262 2181.26,825.596 2181.5,827.5C 2179.74,826.738 2178.74,825.404 2178.5,823.5 Z"/></g>
<g><path style="opacity:1" fill="#8c8c8c" d="M 2786.5,824.5 C 2786.57,826.027 2785.91,827.027 2784.5,827.5C 2784.43,825.973 2785.09,824.973 2786.5,824.5 Z"/></g>
<g><path style="opacity:1" fill="#919191" d="M 3457.5,823.5 C 3458.91,823.973 3459.57,824.973 3459.5,826.5C 3458.09,826.027 3457.43,825.027 3457.5,823.5 Z"/></g>
<g><path style="opacity:1" fill="#929292" d="M 609.5,825.5 C 609.573,827.027 608.906,828.027 607.5,828.5C 607.427,826.973 608.094,825.973 609.5,825.5 Z"/></g>
<g><path style="opacity:1" fill="#c5c5c5" d="M 2187.5,815.5 C 2187.67,822.175 2187.5,828.842 2187,835.5C 2185.96,834.756 2185.46,833.756 2185.5,832.5C 2186.17,826.833 2186.83,821.167 2187.5,815.5 Z"/></g>
<g><path style="opacity:1" fill="#787878" d="M 1731.5,826.5 C 1732.91,826.973 1733.57,827.973 1733.5,829.5C 1732.09,829.027 1731.43,828.027 1731.5,826.5 Z"/></g>
<g><path style="opacity:1" fill="#979797" d="M 1996.5,827.5 C 1996.57,829.027 1995.91,830.027 1994.5,830.5C 1994.43,828.973 1995.09,827.973 1996.5,827.5 Z"/></g>
<g><path style="opacity:1" fill="#848484" d="M 3672.5,828.5 C 3673.91,828.973 3674.57,829.973 3674.5,831.5C 3673.09,831.027 3672.43,830.027 3672.5,828.5 Z"/></g>
<g><path style="opacity:1" fill="#909090" d="M 1734.5,830.5 C 1735.91,830.973 1736.57,831.973 1736.5,833.5C 1735.09,833.027 1734.43,832.027 1734.5,830.5 Z"/></g>
<g><path style="opacity:1" fill="#7e7e7e" d="M 1993.5,831.5 C 1993.57,833.027 1992.91,834.027 1991.5,834.5C 1991.43,832.973 1992.09,831.973 1993.5,831.5 Z"/></g>
<g><path style="opacity:1" fill="#7e7e7e" d="M 2779.5,833.5 C 2779.57,835.027 2778.91,836.027 2777.5,836.5C 2777.43,834.973 2778.09,833.973 2779.5,833.5 Z"/></g>
<g><path style="opacity:1" fill="#898989" d="M 1990.5,835.5 C 1990.57,837.027 1989.91,838.027 1988.5,838.5C 1988.43,836.973 1989.09,835.973 1990.5,835.5 Z"/></g>
<g><path style="opacity:1" fill="#747474" d="M 599.5,837.5 C 599.573,839.027 598.906,840.027 597.5,840.5C 597.427,838.973 598.094,837.973 599.5,837.5 Z"/></g>
<g><path style="opacity:1" fill="#969696" d="M 2776.5,837.5 C 2776.57,839.027 2775.91,840.027 2774.5,840.5C 2774.43,838.973 2775.09,837.973 2776.5,837.5 Z"/></g>
<g><path style="opacity:1" fill="#969696" d="M 1537.5,840.5 C 1537.57,842.027 1536.91,843.027 1535.5,843.5C 1535.43,841.973 1536.09,840.973 1537.5,840.5 Z"/></g>
<g><path style="opacity:1" fill="#848484" d="M 2774.5,840.5 C 2774.57,842.027 2773.91,843.027 2772.5,843.5C 2772.43,841.973 2773.09,840.973 2774.5,840.5 Z"/></g>
<g><path style="opacity:1" fill="#858585" d="M 1535.5,843.5 C 1535.57,845.027 1534.91,846.027 1533.5,846.5C 1533.43,844.973 1534.09,843.973 1535.5,843.5 Z"/></g>
<g><path style="opacity:1" fill="#7d7d7d" d="M 2772.5,843.5 C 2772.57,845.027 2771.91,846.027 2770.5,846.5C 2770.43,844.973 2771.09,843.973 2772.5,843.5 Z"/></g>
<g><path style="opacity:1" fill="#767676" d="M 593.5,845.5 C 593.573,847.027 592.906,848.027 591.5,848.5C 591.427,846.973 592.094,845.973 593.5,845.5 Z"/></g>
<g><path style="opacity:1" fill="#717171" d="M 768.5,842.5 C 769.924,844.515 770.59,846.848 770.5,849.5C 769.076,847.485 768.41,845.152 768.5,842.5 Z"/></g>
<g><path style="opacity:1" fill="#818181" d="M 1533.5,846.5 C 1533.57,848.027 1532.91,849.027 1531.5,849.5C 1531.43,847.973 1532.09,846.973 1533.5,846.5 Z"/></g>
<g><path style="opacity:1" fill="#838383" d="M 2770.5,846.5 C 2770.57,848.027 2769.91,849.027 2768.5,849.5C 2768.43,847.973 2769.09,846.973 2770.5,846.5 Z"/></g>
<g><path style="opacity:1" fill="#9b9b9b" d="M 590.5,849.5 C 590.573,851.027 589.906,852.027 588.5,852.5C 588.427,850.973 589.094,849.973 590.5,849.5 Z"/></g>
<g><path style="opacity:1" fill="#828282" d="M 1531.5,849.5 C 1531.57,851.027 1530.91,852.027 1529.5,852.5C 1529.43,850.973 1530.09,849.973 1531.5,849.5 Z"/></g>
<g><path style="opacity:1" fill="#939393" d="M 2768.5,849.5 C 2768.57,851.027 2767.91,852.027 2766.5,852.5C 2766.43,850.973 2767.09,849.973 2768.5,849.5 Z"/></g>
<g><path style="opacity:1" fill="#919191" d="M 588.5,852.5 C 588.573,854.027 587.906,855.027 586.5,855.5C 586.427,853.973 587.094,852.973 588.5,852.5 Z"/></g>
<g><path style="opacity:1" fill="#969696" d="M 1529.5,852.5 C 1529.57,854.027 1528.91,855.027 1527.5,855.5C 1527.43,853.973 1528.09,852.973 1529.5,852.5 Z"/></g>
<g><path style="opacity:1" fill="#939393" d="M 586.5,855.5 C 586.573,857.027 585.906,858.027 584.5,858.5C 584.427,856.973 585.094,855.973 586.5,855.5 Z"/></g>
<g><path style="opacity:1" fill="#6d6d6d" d="M 909.5,856.5 C 909.59,859.152 908.924,861.485 907.5,863.5C 907.41,860.848 908.076,858.515 909.5,856.5 Z"/></g>
<g><path style="opacity:1" fill="#898989" d="M 1696.5,865.5 C 1698.03,865.427 1699.03,866.094 1699.5,867.5C 1697.97,867.573 1696.97,866.906 1696.5,865.5 Z"/></g>
<g><path style="opacity:1" fill="#8f8f8f" d="M 2150.5,865.5 C 2152.03,865.427 2153.03,866.094 2153.5,867.5C 2151.97,867.573 2150.97,866.906 2150.5,865.5 Z"/></g>
<g><path style="opacity:1" fill="#787878" d="M 2933.5,865.5 C 2935.03,865.427 2936.03,866.094 2936.5,867.5C 2934.97,867.573 2933.97,866.906 2933.5,865.5 Z"/></g>
<g><path style="opacity:1" fill="#969696" d="M 1701.5,869.5 C 1703.03,869.427 1704.03,870.094 1704.5,871.5C 1702.97,871.573 1701.97,870.906 1701.5,869.5 Z"/></g>
<g><path style="opacity:1" fill="#9d9d9d" d="M 2939.5,870.5 C 2941.83,870.833 2943.17,872.167 2943.5,874.5C 2941.83,873.5 2940.5,872.167 2939.5,870.5 Z"/></g>
<g><path style="opacity:1" fill="#888888" d="M 2387.5,897.5 C 2389.03,897.427 2390.03,898.094 2390.5,899.5C 2388.97,899.573 2387.97,898.906 2387.5,897.5 Z"/></g>
<g><path style="opacity:1" fill="#767676" d="M 3511.5,920.5 C 3511.74,922.898 3511.07,924.898 3509.5,926.5C 3509.59,924.214 3510.26,922.214 3511.5,920.5 Z"/></g>
<g><path style="opacity:1" fill="#656565" d="M 2392.5,921.5 C 2392.59,924.152 2391.92,926.485 2390.5,928.5C 2390.41,925.848 2391.08,923.515 2392.5,921.5 Z"/></g>
<g><path style="opacity:1" fill="#6d6d6d" d="M 2735.5,921.5 C 2735.59,924.152 2734.92,926.485 2733.5,928.5C 2733.41,925.848 2734.08,923.515 2735.5,921.5 Z"/></g>
<g><path style="opacity:1" fill="#686868" d="M 1948.5,922.5 C 1948.59,925.152 1947.92,927.485 1946.5,929.5C 1946.41,926.848 1947.08,924.515 1948.5,922.5 Z"/></g>
<g><path style="opacity:1" fill="#656565" d="M 2390.5,928.5 C 2390.59,931.152 2389.92,933.485 2388.5,935.5C 2388.41,932.848 2389.08,930.515 2390.5,928.5 Z"/></g>
<g><path style="opacity:1" fill="#acacac" d="M 3283.5,819.5 C 3284.17,874.167 3284.83,928.833 3285.5,983.5C 3285.11,985.179 3284.61,986.846 3284,988.5C 3283.5,932.168 3283.33,875.834 3283.5,819.5 Z"/></g>
<g><path style="opacity:1" fill="#868686" d="M 143.5,938.5 C 144.906,938.973 145.573,939.973 145.5,941.5C 144.094,941.027 143.427,940.027 143.5,938.5 Z"/></g>
<g><path style="opacity:1" fill="#7e7e7e" d="M 78.5,944.5 C 80.0269,944.427 81.0269,945.094 81.5,946.5C 79.9731,946.573 78.9731,945.906 78.5,944.5 Z"/></g>
<g><path style="opacity:1" fill="#919191" d="M 973.5,997.5 C 975.404,997.738 976.738,998.738 977.5,1000.5C 975.596,1000.26 974.262,999.262 973.5,997.5 Z"/></g>
<g><path style="opacity:1" fill="#8c8c8c" d="M 985.5,1008.5 C 987.027,1008.43 988.027,1009.09 988.5,1010.5C 986.973,1010.57 985.973,1009.91 985.5,1008.5 Z"/></g>
<g><path style="opacity:1" fill="#7f7f7f" d="M 507.5,945.5 C 507.169,976.005 507.502,1006.34 508.5,1036.5C 508.291,1037.92 507.791,1039.26 507,1040.5C 506.169,1008.66 506.336,976.997 507.5,945.5 Z"/></g>
<g><path style="opacity:1" fill="#929292" d="M 997.5,1019.5 C 999.027,1019.43 1000.03,1020.09 1000.5,1021.5C 998.973,1021.57 997.973,1020.91 997.5,1019.5 Z"/></g>
<g><path style="opacity:1" fill="#858585" d="M 1131.5,1027.5 C 1133.26,1028.26 1134.26,1029.6 1134.5,1031.5C 1132.74,1030.74 1131.74,1029.4 1131.5,1027.5 Z"/></g>
<g><path style="opacity:1" fill="#949494" d="M 1009.5,1030.5 C 1011.75,1031.08 1013.42,1032.41 1014.5,1034.5C 1012.25,1033.92 1010.58,1032.59 1009.5,1030.5 Z"/></g>
<g><path style="opacity:1" fill="#9a9a9a" d="M 1148.5,1050.5 C 1149.91,1050.97 1150.57,1051.97 1150.5,1053.5C 1149.09,1053.03 1148.43,1052.03 1148.5,1050.5 Z"/></g>
<g><path style="opacity:1" fill="#7f7f7f" d="M 2283.5,991.5 C 2283.17,1042.67 2283.5,1093.67 2284.5,1144.5C 2284.22,1145.29 2283.72,1145.96 2283,1146.5C 2282.17,1094.67 2282.33,1043 2283.5,991.5 Z"/></g>
<g><path style="opacity:1" fill="#999999" d="M 857.5,1086.5 C 857.573,1088.03 856.906,1089.03 855.5,1089.5C 855.427,1087.97 856.094,1086.97 857.5,1086.5 Z"/></g>
<g><path style="opacity:1" fill="#808080" d="M 1206.5,1093.5 C 1206.57,1095.03 1205.91,1096.03 1204.5,1096.5C 1204.43,1094.97 1205.09,1093.97 1206.5,1093.5 Z"/></g>
<g><path style="opacity:1" fill="#afafaf" d="M 1246.5,1098.5 C 1245.83,1096.83 1245.17,1095.17 1244.5,1093.5C 1244.37,1092.62 1244.7,1091.96 1245.5,1091.5C 1246.47,1093.74 1246.81,1096.08 1246.5,1098.5 Z"/></g>
<g><path style="opacity:1" fill="#969696" d="M 2316.5,1095.5 C 2316.57,1097.03 2315.91,1098.03 2314.5,1098.5C 2314.43,1096.97 2315.09,1095.97 2316.5,1095.5 Z"/></g>
<g><path style="opacity:1" fill="#8e8e8e" d="M 3807.5,1095.5 C 3808.91,1095.97 3809.57,1096.97 3809.5,1098.5C 3808.09,1098.03 3807.43,1097.03 3807.5,1095.5 Z"/></g>
<g><path style="opacity:1" fill="#838383" d="M 1204.5,1096.5 C 1204.57,1098.03 1203.91,1099.03 1202.5,1099.5C 1202.43,1097.97 1203.09,1096.97 1204.5,1096.5 Z"/></g>
<g><path style="opacity:1" fill="#757575" d="M 1202.5,1099.5 C 1202.57,1101.03 1201.91,1102.03 1200.5,1102.5C 1200.43,1100.97 1201.09,1099.97 1202.5,1099.5 Z"/></g>
<g><path style="opacity:1" fill="#919191" d="M 2313.5,1100.5 C 2313.57,1102.03 2312.91,1103.03 2311.5,1103.5C 2311.43,1101.97 2312.09,1100.97 2313.5,1100.5 Z"/></g>
<g><path style="opacity:1" fill="#9a9a9a" d="M 845.5,1106.5 C 845.573,1108.03 844.906,1109.03 843.5,1109.5C 843.427,1107.97 844.094,1106.97 845.5,1106.5 Z"/></g>
<g><path style="opacity:1" fill="#6a6a6a" d="M 2174.5,1107.5 C 2174.59,1110.15 2173.92,1112.49 2172.5,1114.5C 2172.41,1111.85 2173.08,1109.51 2174.5,1107.5 Z"/></g>
<g><path style="opacity:1" fill="#6b6b6b" d="M 2961.5,1111.5 C 2961.59,1114.15 2960.92,1116.49 2959.5,1118.5C 2959.41,1115.85 2960.08,1113.51 2961.5,1111.5 Z"/></g>
<g><path style="opacity:1" fill="#8c8c8c" d="M 2305.5,1113.5 C 2305.57,1115.03 2304.91,1116.03 2303.5,1116.5C 2303.43,1114.97 2304.09,1113.97 2305.5,1113.5 Z"/></g>
<g><path style="opacity:1" fill="#757575" d="M 1190.5,1115.5 C 1190.26,1117.4 1189.26,1118.74 1187.5,1119.5C 1187.74,1117.6 1188.74,1116.26 1190.5,1115.5 Z"/></g>
<g><path style="opacity:1" fill="#8f8f8f" d="M 835.5,1122.5 C 835.573,1124.03 834.906,1125.03 833.5,1125.5C 833.427,1123.97 834.094,1122.97 835.5,1122.5 Z"/></g>
<g><path style="opacity:1" fill="#8d8d8d" d="M 1183.5,1123.5 C 1183.57,1125.03 1182.91,1126.03 1181.5,1126.5C 1181.43,1124.97 1182.09,1123.97 1183.5,1123.5 Z"/></g>
<g><path style="opacity:1" fill="#969696" d="M 833.5,1125.5 C 833.573,1127.03 832.906,1128.03 831.5,1128.5C 831.427,1126.97 832.094,1125.97 833.5,1125.5 Z"/></g>
<g><path style="opacity:1" fill="#777777" d="M 2296.5,1127.5 C 2296.57,1129.03 2295.91,1130.03 2294.5,1130.5C 2294.43,1128.97 2295.09,1127.97 2296.5,1127.5 Z"/></g>
<g><path style="opacity:1" fill="#929292" d="M 831.5,1128.5 C 831.573,1130.03 830.906,1131.03 829.5,1131.5C 829.427,1129.97 830.094,1128.97 831.5,1128.5 Z"/></g>
<g><path style="opacity:1" fill="#919191" d="M 829.5,1131.5 C 829.573,1133.03 828.906,1134.03 827.5,1134.5C 827.427,1132.97 828.094,1131.97 829.5,1131.5 Z"/></g>
<g><path style="opacity:1" fill="#767676" d="M 3175.5,1130.5 C 3175.88,1132.7 3175.21,1134.36 3173.5,1135.5C 3173.8,1133.6 3174.46,1131.93 3175.5,1130.5 Z"/></g>
<g><path style="opacity:1" fill="#868686" d="M 827.5,1134.5 C 827.573,1136.03 826.906,1137.03 825.5,1137.5C 825.427,1135.97 826.094,1134.97 827.5,1134.5 Z"/></g>
<g><path style="opacity:1" fill="#919191" d="M 2289.5,1137.5 C 2289.57,1139.03 2288.91,1140.03 2287.5,1140.5C 2287.43,1138.97 2288.09,1137.97 2289.5,1137.5 Z"/></g>
<g><path style="opacity:1" fill="#7e7e7e" d="M 1164.5,1140.5 C 1164.84,1141.34 1165.51,1141.67 1166.5,1141.5C 1166.19,1142.48 1165.52,1143.14 1164.5,1143.5C 1163.22,1142.39 1163.22,1141.39 1164.5,1140.5 Z"/></g>
<g><path style="opacity:1" fill="#848484" d="M 822.5,1141.5 C 822.573,1143.03 821.906,1144.03 820.5,1144.5C 820.427,1142.97 821.094,1141.97 822.5,1141.5 Z"/></g>
<g><path style="opacity:1" fill="#bbbbbb" d="M 1490.5,1148.5 C 1489.83,1147.83 1489.17,1147.17 1488.5,1146.5C 1488.37,1145.76 1488.54,1145.09 1489,1144.5C 1490.19,1145.56 1490.69,1146.9 1490.5,1148.5 Z"/></g>
<g><path style="opacity:1" fill="#808080" d="M 819.5,1145.5 C 819.573,1147.03 818.906,1148.03 817.5,1148.5C 817.427,1146.97 818.094,1145.97 819.5,1145.5 Z"/></g>
<g><path style="opacity:1" fill="#8e8e8e" d="M 1448.5,1146.5 C 1448.57,1148.03 1447.91,1149.03 1446.5,1149.5C 1446.43,1147.97 1447.09,1146.97 1448.5,1146.5 Z"/></g>
<g><path style="opacity:1" fill="#666666" d="M 2725.5,1146.5 C 2725.59,1149.15 2724.92,1151.49 2723.5,1153.5C 2723.41,1150.85 2724.08,1148.51 2725.5,1146.5 Z"/></g>
<g><path style="opacity:1" fill="#767676" d="M 2624.5,1146.5 C 2625.77,1148.91 2626.43,1151.57 2626.5,1154.5C 2624.96,1152.16 2624.29,1149.5 2624.5,1146.5 Z"/></g>
<g><path style="opacity:1" fill="#959595" d="M 1444.5,1152.5 C 1444.57,1154.03 1443.91,1155.03 1442.5,1155.5C 1442.43,1153.97 1443.09,1152.97 1444.5,1152.5 Z"/></g>
<g><path style="opacity:1" fill="#818181" d="M 1442.5,1155.5 C 1442.57,1157.03 1441.91,1158.03 1440.5,1158.5C 1440.43,1156.97 1441.09,1155.97 1442.5,1155.5 Z"/></g>
<g><path style="opacity:1" fill="#787878" d="M 927.5,1159.5 C 926.738,1161.26 925.404,1162.26 923.5,1162.5C 924.262,1160.74 925.596,1159.74 927.5,1159.5 Z"/></g>
<g><path style="opacity:1" fill="#616161" d="M 807.5,1159.5 C 806.5,1162.5 804.5,1164.5 801.5,1165.5C 803.167,1163.17 805.167,1161.17 807.5,1159.5 Z"/></g>
<g><path style="opacity:1" fill="#797979" d="M 1436.5,1163.5 C 1436.26,1165.4 1435.26,1166.74 1433.5,1167.5C 1433.74,1165.6 1434.74,1164.26 1436.5,1163.5 Z"/></g>
<g><path style="opacity:1" fill="#9b9b9b" d="M 2153.5,1163.5 C 2153.57,1165.03 2152.91,1166.03 2151.5,1166.5C 2151.43,1164.97 2152.09,1163.97 2153.5,1163.5 Z"/></g>
<g><path style="opacity:1" fill="#868686" d="M 800.5,1166.5 C 800.027,1167.91 799.027,1168.57 797.5,1168.5C 797.973,1167.09 798.973,1166.43 800.5,1166.5 Z"/></g>
<g><path style="opacity:1" fill="#757575" d="M 921.5,1164.5 C 920.089,1166.91 918.089,1168.58 915.5,1169.5C 916.911,1167.09 918.911,1165.42 921.5,1164.5 Z"/></g>
<g><path style="opacity:1" fill="#919191" d="M 1701.5,1167.5 C 1701.57,1169.03 1700.91,1170.03 1699.5,1170.5C 1699.43,1168.97 1700.09,1167.97 1701.5,1167.5 Z"/></g>
<g><path style="opacity:1" fill="#9a9a9a" d="M 2938.5,1167.5 C 2938.57,1169.03 2937.91,1170.03 2936.5,1170.5C 2936.43,1168.97 2937.09,1167.97 2938.5,1167.5 Z"/></g>
<g><path style="opacity:1" fill="#8c8c8c" d="M 915.5,1169.5 C 915.262,1171.4 914.262,1172.74 912.5,1173.5C 912.738,1171.6 913.738,1170.26 915.5,1169.5 Z"/></g>
<g><path style="opacity:1" fill="#828282" d="M 2150.5,1168.5 C 2150.57,1170.03 2149.91,1171.03 2148.5,1171.5C 2148.43,1169.97 2149.09,1168.97 2150.5,1168.5 Z"/></g>
<g><path style="opacity:1" fill="#7d7d7d" d="M 779.5,1171.5 C 780.71,1171.93 781.71,1172.6 782.5,1173.5C 780.821,1173.71 779.821,1173.05 779.5,1171.5 Z"/></g>
<g><path style="opacity:1" fill="#8c8c8c" d="M 1699.5,1170.5 C 1699.57,1172.03 1698.91,1173.03 1697.5,1173.5C 1697.43,1171.97 1698.09,1170.97 1699.5,1170.5 Z"/></g>
<g><path style="opacity:1" fill="#939393" d="M 1754.5,1174.5 C 1754.56,1173.96 1754.89,1173.62 1755.5,1173.5C 1756.47,1175.4 1756.8,1177.4 1756.5,1179.5C 1755.83,1177.83 1755.17,1176.17 1754.5,1174.5 Z"/></g>
<g><path style="opacity:1" fill="#797979" d="M 2148.5,1171.5 C 2148.57,1173.03 2147.91,1174.03 2146.5,1174.5C 2146.43,1172.97 2147.09,1171.97 2148.5,1171.5 Z"/></g>
<g><path style="opacity:1" fill="#a7a7a7" d="M 2993.5,1177.5 C 2992.83,1176.5 2992.17,1175.5 2991.5,1174.5C 2991.37,1173.76 2991.54,1173.09 2992,1172.5C 2993.27,1173.9 2993.77,1175.57 2993.5,1177.5 Z"/></g>
<g><path style="opacity:1" fill="#818181" d="M 2934.5,1173.5 C 2934.57,1175.03 2933.91,1176.03 2932.5,1176.5C 2932.43,1174.97 2933.09,1173.97 2934.5,1173.5 Z"/></g>
<g><path style="opacity:1" fill="#8f8f8f" d="M 1060.5,1174.5 C 1060.57,1176.03 1059.91,1177.03 1058.5,1177.5C 1058.43,1175.97 1059.09,1174.97 1060.5,1174.5 Z"/></g>
<g><path style="opacity:1" fill="#828282" d="M 2145.5,1175.5 C 2145.57,1177.03 2144.91,1178.03 2143.5,1178.5C 2143.43,1176.97 2144.09,1175.97 2145.5,1175.5 Z"/></g>
<g><path style="opacity:1" fill="#6b6b6b" d="M 1427.5,1173.5 C 1425.83,1177.17 1423.17,1179.83 1419.5,1181.5C 1421.83,1178.5 1424.5,1175.83 1427.5,1173.5 Z"/></g>
<g><path style="opacity:1" fill="#999999" d="M 2054.5,1176.5 C 2055.91,1176.97 2056.57,1177.97 2056.5,1179.5C 2055.09,1179.03 2054.43,1178.03 2054.5,1176.5 Z"/></g>
<g><path style="opacity:1" fill="#7a7a7a" d="M 2931.5,1177.5 C 2931.26,1179.4 2930.26,1180.74 2928.5,1181.5C 2928.74,1179.6 2929.74,1178.26 2931.5,1177.5 Z"/></g>
<g><path style="opacity:1" fill="#989898" d="M 1368.5,1177.5 C 1369.91,1177.97 1370.57,1178.97 1370.5,1180.5C 1369.09,1180.03 1368.43,1179.03 1368.5,1177.5 Z"/></g>
<g><path style="opacity:1" fill="#777777" d="M 1693.5,1178.5 C 1693.26,1180.4 1692.26,1181.74 1690.5,1182.5C 1690.74,1180.6 1691.74,1179.26 1693.5,1178.5 Z"/></g>
<g><path style="opacity:1" fill="#8b8b8b" d="M 2140.5,1181.5 C 2140.57,1183.03 2139.91,1184.03 2138.5,1184.5C 2138.43,1182.97 2139.09,1181.97 2140.5,1181.5 Z"/></g>
<g><path style="opacity:1" fill="#787878" d="M 2844.5,1180.5 C 2845.91,1180.97 2846.57,1181.97 2846.5,1183.5C 2845.09,1183.03 2844.43,1182.03 2844.5,1180.5 Z"/></g>
<g><path style="opacity:1" fill="#777777" d="M 3152.5,1180.5 C 3152.57,1182.03 3151.91,1183.03 3150.5,1183.5C 3150.43,1181.97 3151.09,1180.97 3152.5,1180.5 Z"/></g>
<g><path style="opacity:1" fill="#7e7e7e" d="M 1608.5,1181.5 C 1609.91,1181.97 1610.57,1182.97 1610.5,1184.5C 1609.09,1184.03 1608.43,1183.03 1608.5,1181.5 Z"/></g>
<g><path style="opacity:1" fill="#8a8a8a" d="M 1917.5,1181.5 C 1917.57,1183.03 1916.91,1184.03 1915.5,1184.5C 1915.43,1182.97 1916.09,1181.97 1917.5,1181.5 Z"/></g>
<g><path style="opacity:1" fill="#9b9b9b" d="M 1374.5,1185.5 C 1375.83,1186.17 1376.83,1187.17 1377.5,1188.5C 1375.5,1188.5 1374.5,1187.5 1374.5,1185.5 Z"/></g>
<g><path style="opacity:1" fill="#8c8c8c" d="M 1915.5,1184.5 C 1915.57,1186.03 1914.91,1187.03 1913.5,1187.5C 1913.43,1185.97 1914.09,1184.97 1915.5,1184.5 Z"/></g>
<g><path style="opacity:1" fill="#7a7a7a" d="M 2060.5,1185.5 C 2061.91,1185.97 2062.57,1186.97 2062.5,1188.5C 2061.09,1188.03 2060.43,1187.03 2060.5,1185.5 Z"/></g>
<g><path style="opacity:1" fill="#909090" d="M 2639.5,1186.5 C 2640.91,1186.97 2641.57,1187.97 2641.5,1189.5C 2640.09,1189.03 2639.43,1188.03 2639.5,1186.5 Z"/></g>
<g><path style="opacity:1" fill="#909090" d="M 2708.5,1186.5 C 2708.57,1188.03 2707.91,1189.03 2706.5,1189.5C 2706.43,1187.97 2707.09,1186.97 2708.5,1186.5 Z"/></g>
<g><path style="opacity:1" fill="#767676" d="M 1409.5,1188.5 C 1409.03,1189.91 1408.03,1190.57 1406.5,1190.5C 1406.97,1189.09 1407.97,1188.43 1409.5,1188.5 Z"/></g>
<g><path style="opacity:1" fill="#6d6d6d" d="M 2133.5,1189.5 C 2132.42,1191.59 2130.75,1192.92 2128.5,1193.5C 2129.58,1191.41 2131.25,1190.08 2133.5,1189.5 Z"/></g>
<g><path style="opacity:1" fill="#7b7b7b" d="M 3701.5,1189.5 C 3702.91,1189.97 3703.57,1190.97 3703.5,1192.5C 3702.09,1192.03 3701.43,1191.03 3701.5,1189.5 Z"/></g>
<g><path style="opacity:1" fill="#787878" d="M 1682.5,1190.5 C 1681.74,1192.26 1680.4,1193.26 1678.5,1193.5C 1679.26,1191.74 1680.6,1190.74 1682.5,1190.5 Z"/></g>
<g><path style="opacity:1" fill="#818181" d="M 2641.5,1189.5 C 2642.91,1189.97 2643.57,1190.97 2643.5,1192.5C 2642.09,1192.03 2641.43,1191.03 2641.5,1189.5 Z"/></g>
<g><path style="opacity:1" fill="#d0d0d0" d="M 1956.5,1193.5 C 1955.83,1193.5 1955.17,1193.5 1954.5,1193.5C 1955.17,1190.83 1955.83,1190.83 1956.5,1193.5 Z"/></g>
<g><path style="opacity:1" fill="#959595" d="M 2704.5,1191.5 C 2704.57,1193.03 2703.91,1194.03 2702.5,1194.5C 2702.43,1192.97 2703.09,1191.97 2704.5,1191.5 Z"/></g>
<g><path style="opacity:1" fill="#828282" d="M 3748.5,1193.5 C 3747.5,1196.5 3745.5,1198.5 3742.5,1199.5C 3744.17,1197.17 3746.17,1195.17 3748.5,1193.5 Z"/></g>
<g><path style="opacity:1" fill="#9b9b9b" d="M 2646.5,1195.5 C 2648.17,1196.5 2649.5,1197.83 2650.5,1199.5C 2648.17,1199.17 2646.83,1197.83 2646.5,1195.5 Z"/></g>
<g><path style="opacity:1" fill="#d0d0d0" d="M 2746.5,1197.5 C 2745.83,1197.83 2745.17,1198.17 2744.5,1198.5C 2744.71,1196.58 2745.38,1196.24 2746.5,1197.5 Z"/></g>
<g><path style="opacity:1" fill="#8e8e8e" d="M 3089.5,1196.5 C 3091.5,1197.83 3093.17,1199.5 3094.5,1201.5C 3091.83,1200.83 3090.17,1199.17 3089.5,1196.5 Z"/></g>
<g><path style="opacity:1" fill="#717171" d="M 1907.5,1194.5 C 1906.17,1197.83 1903.83,1200.17 1900.5,1201.5C 1902.5,1198.83 1904.83,1196.5 1907.5,1194.5 Z"/></g>
<g><path style="opacity:1" fill="#dcdcdc" d="M 2192.5,1202.5 C 2191.83,1200.5 2191.17,1198.5 2190.5,1196.5C 2190.78,1195.71 2191.28,1195.04 2192,1194.5C 2192.5,1197.15 2192.66,1199.81 2192.5,1202.5 Z"/></g>
<g><path style="opacity:1" fill="#7b7b7b" d="M 2112.5,1202.5 C 2111.36,1204.21 2109.7,1204.88 2107.5,1204.5C 2108.93,1203.46 2110.6,1202.8 2112.5,1202.5 Z"/></g>
<g><path style="opacity:1" fill="#787878" d="M 3736.5,1202.5 C 3735.01,1204.28 3733.01,1204.95 3730.5,1204.5C 3732.3,1203.54 3734.3,1202.88 3736.5,1202.5 Z"/></g>
<g><path style="opacity:1" fill="#b1b1b1" d="M 3188.5,1207.5 C 3187.83,1203.5 3187.17,1199.5 3186.5,1195.5C 3186.46,1194.24 3186.96,1193.24 3188,1192.5C 3188.5,1197.49 3188.67,1202.49 3188.5,1207.5 Z"/></g>
<g><path style="opacity:1" fill="#8a8a8a" d="M 3435.5,1221.5 C 3437.03,1221.43 3438.03,1222.09 3438.5,1223.5C 3436.97,1223.57 3435.97,1222.91 3435.5,1221.5 Z"/></g>
<g><path style="opacity:1" fill="#8e8e8e" d="M 1537.5,1236.5 C 1539.03,1236.43 1540.03,1237.09 1540.5,1238.5C 1538.97,1238.57 1537.97,1237.91 1537.5,1236.5 Z"/></g>
<g><path style="opacity:1" fill="#939393" d="M 2774.5,1236.5 C 2776.4,1236.74 2777.74,1237.74 2778.5,1239.5C 2776.6,1239.26 2775.26,1238.26 2774.5,1236.5 Z"/></g>
<g><path style="opacity:1" fill="#7c7c7c" d="M 2576.5,1238.5 C 2578.03,1238.43 2579.03,1239.09 2579.5,1240.5C 2577.97,1240.57 2576.97,1239.91 2576.5,1238.5 Z"/></g>
<g><path style="opacity:1" fill="#939393" d="M 3639.5,1239.5 C 3641.4,1239.74 3642.74,1240.74 3643.5,1242.5C 3641.6,1242.26 3640.26,1241.26 3639.5,1239.5 Z"/></g>
<g><path style="opacity:1" fill="#909090" d="M 1788.5,1241.5 C 1790.4,1241.74 1791.74,1242.74 1792.5,1244.5C 1790.6,1244.26 1789.26,1243.26 1788.5,1241.5 Z"/></g>
<g><path style="opacity:1" fill="#969696" d="M 906.5,1241.5 C 908.027,1241.43 909.027,1242.09 909.5,1243.5C 907.973,1243.57 906.973,1242.91 906.5,1241.5 Z"/></g>
<g><path style="opacity:1" fill="#868686" d="M 1303.5,1244.5 C 1305.03,1244.43 1306.03,1245.09 1306.5,1246.5C 1304.97,1246.57 1303.97,1245.91 1303.5,1244.5 Z"/></g>
<g><path style="opacity:1" fill="#7c7c7c" d="M 1996.5,1244.5 C 1998.03,1244.43 1999.03,1245.09 1999.5,1246.5C 1997.97,1246.57 1996.97,1245.91 1996.5,1244.5 Z"/></g>
<g><path style="opacity:1" fill="#767676" d="M 1548.5,1245.5 C 1550.03,1245.43 1551.03,1246.09 1551.5,1247.5C 1549.97,1247.57 1548.97,1246.91 1548.5,1245.5 Z"/></g>
<g><path style="opacity:1" fill="#7d7d7d" d="M 2585.5,1245.5 C 2587.03,1245.43 2588.03,1246.09 2588.5,1247.5C 2586.97,1247.57 2585.97,1246.91 2585.5,1245.5 Z"/></g>
<g><path style="opacity:1" fill="#777777" d="M 3033.5,1246.5 C 3035.03,1246.43 3036.03,1247.09 3036.5,1248.5C 3034.97,1248.57 3033.97,1247.91 3033.5,1246.5 Z"/></g>
<g><path style="opacity:1" fill="#949494" d="M 2000.5,1247.5 C 2002.03,1247.43 2003.03,1248.09 2003.5,1249.5C 2001.97,1249.57 2000.97,1248.91 2000.5,1247.5 Z"/></g>
<g><path style="opacity:1" fill="#949494" d="M 2003.5,1249.5 C 2005.03,1249.43 2006.03,1250.09 2006.5,1251.5C 2004.97,1251.57 2003.97,1250.91 2003.5,1249.5 Z"/></g>
<g><path style="opacity:1" fill="#6d6d6d" d="M 2186.5,1247.5 C 2184.43,1250.57 2181.76,1252.91 2178.5,1254.5C 2180.57,1251.43 2183.24,1249.09 2186.5,1247.5 Z"/></g>
<g><path style="opacity:1" fill="#979797" d="M 3037.5,1249.5 C 3039.03,1249.43 3040.03,1250.09 3040.5,1251.5C 3038.97,1251.57 3037.97,1250.91 3037.5,1249.5 Z"/></g>
<g><path style="opacity:1" fill="#777777" d="M 1311.5,1250.5 C 1313.03,1250.43 1314.03,1251.09 1314.5,1252.5C 1312.97,1252.57 1311.97,1251.91 1311.5,1250.5 Z"/></g>
<g><path style="opacity:1" fill="#8c8c8c" d="M 3653.5,1250.5 C 3655.03,1250.43 3656.03,1251.09 3656.5,1252.5C 3654.97,1252.57 3653.97,1251.91 3653.5,1250.5 Z"/></g>
<g><path style="opacity:1" fill="#8e8e8e" d="M 697.5,1255.5 C 699.027,1255.43 700.027,1256.09 700.5,1257.5C 698.973,1257.57 697.973,1256.91 697.5,1255.5 Z"/></g>
<g><path style="opacity:1" fill="#999999" d="M 701.5,1258.5 C 703.027,1258.43 704.027,1259.09 704.5,1260.5C 702.973,1260.57 701.973,1259.91 701.5,1258.5 Z"/></g>
<g><path style="opacity:1" fill="#646464" d="M 2173.5,1259.5 C 2171.76,1262.24 2169.43,1264.24 2166.5,1265.5C 2168.24,1262.76 2170.57,1260.76 2173.5,1259.5 Z"/></g>
<g><path style="opacity:1" fill="#656565" d="M 2161.5,1270.5 C 2159.76,1273.24 2157.43,1275.24 2154.5,1276.5C 2156.24,1273.76 2158.57,1271.76 2161.5,1270.5 Z"/></g>
<g><path style="opacity:1" fill="#666666" d="M 2149.5,1281.5 C 2147.76,1284.24 2145.43,1286.24 2142.5,1287.5C 2144.24,1284.76 2146.57,1282.76 2149.5,1281.5 Z"/></g>
<g><path style="opacity:1" fill="#696969" d="M 2137.5,1292.5 C 2135.76,1295.24 2133.43,1297.24 2130.5,1298.5C 2132.24,1295.76 2134.57,1293.76 2137.5,1292.5 Z"/></g>
<g><path style="opacity:1" fill="#707070" d="M 2125.5,1303.5 C 2123.43,1306.57 2120.76,1308.91 2117.5,1310.5C 2119.57,1307.43 2122.24,1305.09 2125.5,1303.5 Z"/></g>
<g><path style="opacity:1" fill="#5f5f5f" d="M 2111.5,1316.5 C 2109.1,1319.9 2106.1,1322.57 2102.5,1324.5C 2104.9,1321.1 2107.9,1318.43 2111.5,1316.5 Z"/></g>
<g><path style="opacity:1" fill="#727272" d="M 194.5,1328.5 C 194.59,1331.15 193.924,1333.49 192.5,1335.5C 192.41,1332.85 193.076,1330.51 194.5,1328.5 Z"/></g>
<g><path style="opacity:1" fill="#8a8a8a" d="M 2196.5,1312.5 C 2196.56,1311.96 2196.89,1311.62 2197.5,1311.5C 2198.83,1335.66 2198.83,1359.66 2197.5,1383.5C 2197.83,1359.66 2197.5,1335.99 2196.5,1312.5 Z"/></g>
<g><path style="opacity:1" fill="#515151" d="M 2093.5,1333.5 C 2086.11,1341.89 2078.11,1349.56 2069.5,1356.5C 2076.89,1348.11 2084.89,1340.44 2093.5,1333.5 Z"/></g>
<g><path style="opacity:1" fill="#848484" d="M 2062.5,1363.5 C 2061.58,1366.09 2059.91,1368.09 2057.5,1369.5C 2058.42,1366.91 2060.09,1364.91 2062.5,1363.5 Z"/></g>
<g><path style="opacity:1" fill="#939393" d="M 2048.5,1378.5 C 2048.57,1380.03 2047.91,1381.03 2046.5,1381.5C 2046.43,1379.97 2047.09,1378.97 2048.5,1378.5 Z"/></g>
<g><path style="opacity:1" fill="#808080" d="M 2042.5,1385.5 C 2042.57,1387.03 2041.91,1388.03 2040.5,1388.5C 2040.43,1386.97 2041.09,1385.97 2042.5,1385.5 Z"/></g>
<g><path style="opacity:1" fill="#919191" d="M 2021.5,1412.5 C 2021.57,1414.03 2020.91,1415.03 2019.5,1415.5C 2019.43,1413.97 2020.09,1412.97 2021.5,1412.5 Z"/></g>
<g><path style="opacity:1" fill="#858585" d="M 2019.5,1415.5 C 2019.57,1417.03 2018.91,1418.03 2017.5,1418.5C 2017.43,1416.97 2018.09,1415.97 2019.5,1415.5 Z"/></g>
<g><path style="opacity:1" fill="#8e8e8e" d="M 2017.5,1418.5 C 2017.57,1420.03 2016.91,1421.03 2015.5,1421.5C 2015.43,1419.97 2016.09,1418.97 2017.5,1418.5 Z"/></g>
<g><path style="opacity:1" fill="#9b9b9b" d="M 2015.5,1421.5 C 2015.57,1423.03 2014.91,1424.03 2013.5,1424.5C 2013.43,1422.97 2014.09,1421.97 2015.5,1421.5 Z"/></g>
<g><path style="opacity:1" fill="#939393" d="M 2012.5,1426.5 C 2012.57,1428.03 2011.91,1429.03 2010.5,1429.5C 2010.43,1427.97 2011.09,1426.97 2012.5,1426.5 Z"/></g>
<g><path style="opacity:1" fill="#989898" d="M 2168.5,1538.5 C 2168.57,1540.03 2167.91,1541.03 2166.5,1541.5C 2166.43,1539.97 2167.09,1538.97 2168.5,1538.5 Z"/></g>
<g><path style="opacity:1" fill="#8f8f8f" d="M 2160.5,1549.5 C 2160.57,1551.03 2159.91,1552.03 2158.5,1552.5C 2158.43,1550.97 2159.09,1549.97 2160.5,1549.5 Z"/></g>
<g><path style="opacity:1" fill="#7d7d7d" d="M 2071.5,1549.5 C 2072.91,1549.97 2073.57,1550.97 2073.5,1552.5C 2072.09,1552.03 2071.43,1551.03 2071.5,1549.5 Z"/></g>
<g><path style="opacity:1" fill="#757575" d="M 2156.5,1554.5 C 2155.74,1556.26 2154.4,1557.26 2152.5,1557.5C 2153.26,1555.74 2154.6,1554.74 2156.5,1554.5 Z"/></g>
<g><path style="opacity:1" fill="#969696" d="M 2018.5,1577.5 C 2020.4,1577.74 2021.74,1578.74 2022.5,1580.5C 2020.6,1580.26 2019.26,1579.26 2018.5,1577.5 Z"/></g>
<g><path style="opacity:1" fill="#787878" d="M 2030.5,1587.5 C 2032.03,1587.43 2033.03,1588.09 2033.5,1589.5C 2031.97,1589.57 2030.97,1588.91 2030.5,1587.5 Z"/></g>
</svg>
