<?xml version="1.0" standalone="no"?>
<!DOCTYPE svg PUBLIC "-//W3C//DTD SVG 20010904//EN"
 "http://www.w3.org/TR/2001/REC-SVG-20010904/DTD/svg10.dtd">
<svg version="1.0" xmlns="http://www.w3.org/2000/svg"
 width="512.000000pt" height="512.000000pt" viewBox="0 0 512.000000 512.000000"
 preserveAspectRatio="xMidYMid meet">

<g transform="translate(0.000000,512.000000) scale(0.100000,-0.100000)"
fill="#000000" stroke="none">
<path d="M1606 4584 c-431 -78 -790 -389 -929 -807 -63 -188 -62 -161 -62
-1182 0 -857 1 -937 18 -1019 66 -324 220 -573 467 -758 133 -99 252 -156 432
-205 l103 -28 945 -3 c1003 -3 1027 -2 1189 44 193 56 368 160 511 304 172
171 278 365 336 610 16 68 18 157 21 985 3 636 1 940 -7 1009 -61 531 -466
958 -994 1051 -126 22 -1907 21 -2030 -1z m417 -1046 c-2 -5 -250 -8 -550 -8
l-546 0 7 43 c20 126 103 295 201 411 131 154 349 277 541 304 l49 7 151 -375
c83 -206 149 -378 147 -382z m704 745 c3 -10 70 -178 149 -372 79 -195 144
-361 144 -368 0 -11 -63 -13 -336 -11 l-335 3 -138 340 c-75 187 -145 359
-154 383 l-17 42 340 0 c315 0 341 -1 347 -17z m865 3 c288 -56 522 -233 652
-493 36 -72 76 -199 76 -240 l0 -23 -487 2 -486 3 -149 365 c-81 201 -151 373
-154 383 -5 16 11 17 234 17 167 0 263 -4 314 -14z m743 -1836 l0 -785 -23
-90 c-88 -338 -336 -585 -678 -672 -63 -17 -144 -18 -1009 -18 l-940 0 -84 23
c-320 88 -554 315 -652 632 l-23 75 -4 813 -3 812 1708 -2 1708 -3 0 -785z"/>
<path d="M2270 2813 c-38 -15 -74 -50 -91 -87 -17 -38 -19 -76 -19 -599 0
-615 -2 -597 63 -654 42 -37 96 -50 147 -36 59 16 927 551 957 589 49 66 41
164 -20 221 -17 17 -189 126 -382 243 -192 117 -390 238 -440 269 -76 46 -98
55 -145 58 -30 1 -62 0 -70 -4z m615 -607 c61 -37 113 -71 118 -75 6 -6 -560
-361 -577 -361 -3 0 -6 162 -6 360 l0 360 178 -109 c97 -59 227 -138 287 -175z"/>
</g>
</svg>
